<?xml version="1.0" standalone="no"?><!DOCTYPE svg PUBLIC "-//W3C//DTD SVG 1.1//EN" "http://www.w3.org/Graphics/SVG/1.1/DTD/svg11.dtd"><svg t="1686558167737" class="icon" viewBox="0 0 1024 1024" version="1.1" xmlns="http://www.w3.org/2000/svg" p-id="2309" xmlns:xlink="http://www.w3.org/1999/xlink" width="128" height="128"><path d="M974.4 561.76c-0.12-1.712-0.016-3.424-0.016-5.16h-0.08c0-12 0.72-24.064-0.16-36-1.552-20.48-2.064-41.36-6.696-61.2-7.2-30.96-20.936-58.984-40-85.328-22.16-30.608-48.88-54.88-79.944-75.28-4.304-2.84-8.48-5.84-12.752-8.704-22.784-15.328-44.84-31.488-66.048-49.024-21.808-18-45.92-33.12-72.224-44.144-14.344-6-29.04-10.184-44.84-9.84-12.88 0.24-25.76-0.56-38.616 0.24-12.664 0.864-22.816-2.064-32.856-10.72-17.376-15-38.096-22.856-61.68-21.08l-38.416 2.88c-21.336 1.6-42.512 4.376-63.72 7.44-17.376 2.48-33.536 6.768-48 16.68-8.72 5.976-16.424 9.456-28.272 5.04-17.824-6.64-37.04-3.8-55.944-2.144-58.536 5.144-104 31.936-136.768 80.448-4.768 7.08-8.352 15-13.088 22.12a80.48 80.48 0 0 1-11.488 13.496c-10.624 9.984-21.96 19.2-32.272 29.48-5.36 5.312-9.6 11.92-13.616 18.4-19.04 30.784-23.808 65.648-27.736 100.584-0.656 5.68 1.304 11.792 2.816 17.52 7.792 29.92 29.24 51.96 44.96 77.304 1.28 2.024 3.96 3.256 6.16 4.56 9.32 5.336 12.432 13.44 11.536 23.84-1.224 13.952 5.28 24.64 14.88 34.08 8.64 8.512 17.76 16.384 28.84 21.32 16.416 7.344 32.736 15.24 49.8 20.624 22.456 7.08 42.56 17.88 61.16 31.96 5.464 4.144 10.84 8.4 16.48 12.32 16.184 11.28 32.112 23.04 50.56 30.544 28.88 11.728 58 13.624 87.44 1.84 11.808-4.72 12.856-4.16 16.48 6.96 1.84 5.72 3.328 11.544 5.464 17.152 5.24 13.872 12.8 26.368 24.72 35.416 18.416 14.056 36.736 28.24 55.952 41.12 38.032 25.52 80.896 37.04 126.16 38.8 25.6 1.04 51.464 2.296 76.96-2.96 5.84-1.2 12-1.384 17.96-1.04 18.288 1.16 35.704-3.2 53.248-7.2 17.936-4.08 33.76-12.24 48.128-23.52 12.8-10.08 25.856-19.856 38.216-30.48 12.96-11.168 25.256-23.144 37.72-34.896 1.824-1.704 3.256-4.056 4.296-6.352 6-13.224 12.216-26.4 17.568-39.92 3.76-9.44 7.56-19.144 3.76-29.84-0.72-1.96 0.864-4.936 1.824-7.232 16.416-38.368 25.12-78.16 22.104-120.112z m-89.144 53.984c-11.44-2.584-24.04-1.624-35.888-0.28-21.016 2.368-36.448 13.68-46 32.88-3.624 7.328-3.944 14.8-2.216 22.56 1.304 5.864 6.64 10.8 12.544 11.36 6.48 0.64 11.872-1.376 15.328-7.232 0.448-0.752 1.08-1.44 1.264-2.272 3.496-16.112 15.28-19.056 29.232-18.344 12.84 0.656 25.712 1.36 38.544 2.264 3.44 0.256 5.52 4.48 4.032 7.648-7.544 16.344-15.84 32.36-22.512 49.064-11.296 28.24-30.464 49.576-55.92 65.28-13.824 8.536-28.672 15.408-43.216 22.672a37.04 37.04 0 0 1-12.272 3.456c-21.296 2.32-42.64 4.336-63.952 6.432-20.992 1.76-41.04-3.776-61.064-8.192-15.872-3.496-31.336-8.824-46.984-13.328-9.984-2.88-18.904-7.016-26.08-15.4-4.84-5.696-11.76-9.792-18.192-14-7.904-5.12-16.264-9.544-24.352-14.4-3.376-2.056-3.28-6.32 0-7.824 10.96-4.984 22.104-9.76 34.304-10.2 14.576-0.536 29.16-0.512 43.76-0.528 9.8-0.024 18.08 4.88 26.624 8.8 19.88 9.072 40.704 13.656 62.504 11.568 22.456-2.16 40.96-12.376 54.64-30.272 3.56-4.584 5.384-10.64 7.344-16.24 2.424-6.92-4.096-13.808-11.656-12.16-5.84 1.256-11.552 3.24-17.08 5.504s-10.864 5.096-16.16 7.96c-12.536 6.88-25.392 7.816-39.656 5.616-25.152-3.84-24.664-11.152-19.544-33.904 1.392-6.264 6.8-11.76 10.752-17.256 3-4.184 6.88-7.68 9.888-11.824 2.64-3.6 3.56-7.816 1.144-12.016-2.296-3.968-8.776-6.72-13.336-5.92-9.728 1.68-17.576 6.4-23.584 14.32-8.984 11.816-14.92 24.824-17.168 39.648-1.248 8.04-2.608 8.824-9.712 8.976-16.296 0.344-32.616 0.616-48.912 0.88-13.136 0.24-25.2 4.376-37.096 9.504-9.896 4.32-16.064 12.64-23.12 20.08-2.504 2.672-6.048 3.344-9.184 0.768-3.952-3.256-7.648-6.848-11.472-10.288-14.72-13.328-19.704-29.248-14.32-48.768 3.04-11.04-0.36-18.84-7.392-21.92-9.704-4.272-20.128-0.32-26.24 9.808-5.064 8.4-5.984 17.92-6.56 27.2-0.296 5.152 0.856 10.264-2.832 14.56-4.64 5.44-10.704 8.992-17.648 9.696-14.592 1.44-29.064 1.472-42.92-4.864-10.256-4.72-20.12-10-27.624-18.456-7.944-8.96-15.2-18.536-22.48-28.048-5.152-6.72-8.704-14.52-17.36-18.352-4.448-1.96-7.96-6.464-11.32-10.32-6.68-7.616-6-19.336 1.936-25.096a223.864 223.864 0 0 1 26.048-16.512c18.2-9.776 36.696-5.4 54.88 0.424 4.08 1.28 7.72 3.76 11.68 5.416 24.88 10.56 49.92 11.064 74.88 0.368 8.664-3.704 16.88-8.4 25.456-12.376 24.16-11.176 37.336-31.976 48.296-54.744 1.12-2.288 1.504-4.912 2.32-7.336 1.888-5.44 0.624-10.208-3.232-14.192-2.984-3.064-9.816-3.2-14.336 0.304a551.984 551.984 0 0 0-27.88 22.8 165.24 165.24 0 0 1-40.848 26.584c-3.864 1.776-7.816 4.12-11.92 4.616-26.192 3.12-31.944 2.048-25.2-26.16 0.976-4.136 2.4-8.24 4.24-12.096 3.072-6.384 7.6-11.04 15.088-12.768a63.944 63.944 0 0 0 16.56-6.544c7.464-4.144 7.68-13.616 0.88-19.36-1.936-1.632-4.016-3.336-6.344-4.224-15.792-6.12-36.48-1.088-46.84 11.96-10.304 12.96-17.6 27.224-18.344 44.4-0.376 8.616-2.56 9.784-11.456 9.744-6.848 0-13.712-0.08-20.584-0.24-17.648-0.344-33.96 4.64-49.04 13.416-8.12 4.72-15.6 10.56-23.544 15.64-12.96 8.272-21.552 19.104-23.296 35.04-0.8 7.168-4.44 9.52-10.256 8.32-19.48-4.032-38.08-10.104-53.2-23.976-6.856-6.256-10-13.28-8.192-22.848 4.4-23.44 3.624-48 15.256-69.872 7.648-14.352 14.56-29.168 23.328-42.8 4.48-6.96 12.032-12.08 18.672-17.44 2.48-1.92 6.44-3.216 9.536-2.936 16.16 1.536 32.296 3.44 48.336 5.76 4.08 0.64 7.72 3.84 11.808 4.984 11.504 3.2 23 7.016 34.744 8.6 27.2 3.632 50.576-5.92 70.992-23.464 11.12-9.56 21.36-20.04 28.64-32.88 9.232-16.376 22.368-27.984 40.048-34.448 2.384-0.88 4.824-1.84 6.936-3.24 3.84-2.52 5.944-6.32 5.488-10.88-0.48-4.64-3.76-7.36-7.816-9.416-6.504-3.24-13.312-3.36-20.08-1.736-10.928 2.6-21.424 6.52-30.304 13.584a1024.944 1024.944 0 0 0-31.584 26.336c-5.2 4.464-9.984 9.4-14.96 14.16-18.6 17.792-40.36 21.072-64.344 13.856-9.04-2.736-18.216-5.072-26.928-8.584a71.832 71.832 0 0 0-22.4-5.232c-4.144-0.288-9.56-0.36-10.184-5.576-0.272-2.32 3.08-5.648 5.496-7.648 14.736-12.336 30.936-21.344 50.672-23.088 6.752-0.608 13.576-2.576 19.84-5.2 5.376-2.264 10.424-5.84 14.848-9.76 5.2-4.56 3.736-13.92-2.192-17.944-7.36-5-15.384-7.44-24.36-5.76-9.248 1.744-18.6 3.152-27.76 5.36-29.632 7.136-52.576 24.432-71.176 47.984a46.136 46.136 0 0 0-9.864 26.08c-0.28 4.784-3.2 8.8-7.336 9.624-12.944 2.56-18.376 14.88-28.528 20.976-2.6 1.552-3.968 5.4-5.584 8.36-8.24 15.056-16.296 30.096-21.48 46.64-3.28 10.44-11.576 12.176-19.92 4.592-6.336-5.72-11.92-12.288-17.736-18.56a21.28 21.28 0 0 1-2.816-4.296c-7.384-13.336-6.696-54.696 1.416-67.56 7.336-11.584 15.144-22.856 22.592-34.352a35.56 35.56 0 0 1 15.336-13.28c2.32-1.08 4.696-2.224 7.168-2.8 20.96-5.056 22.464-23.04 26.44-39.424-3.92-23.32 9.392-37.144 27.2-47.976a331.416 331.416 0 0 1 31.84-16.744c11.76-5.416 24.176-8.72 37.296-8.832 9.424-0.08 18.856-0.256 28.304-0.48 13.92-0.352 27.52 1.104 39.92 7.976 6.536 3.6 12.904 3.92 19.744 1.52 13.736-4.768 27.8-8.784 41.248-14.296 19.408-7.984 39.36-11.76 60.24-10.92 12.88 0.48 25.744 0.88 38.608 1.36 2.56 0.136 5.2 0.048 7.68 0.584 12.032 2.68 22.136 8.84 30.704 17.6-0.08 11.04-0.48 22.16-5.28 32.336-3.28 6.96-8 13.28-11.056 20.304-3.92 9-1.792 19.064 3.92 23.808 6.64 5.576 18.304 5.04 25.816-2.704 14.64-15.04 25.8-32.024 25.44-54.304-0.08-5.976 0.04-11.984 0.8-17.888 0.64-4.88 6.32-8.768 11.32-8.744 1.704 0 3.496-0.192 5.144 0.136 24.4 5.04 48.264 11.824 70.784 22.616 5.856 2.816 11.04 6.936 16.56 10.464-5.896 1.144-11.856 1.92-17.632 3.424a199.44 199.44 0 0 0-19.544 6.32c-3.976 1.52-7.84 3.576-11.32 5.984-6.24 4.32-9.6 12.376-8.048 17.704 2.024 6.928 9.008 10.92 18.68 10.28a68.216 68.216 0 0 0 12.672-2c18.32-4.776 36.96-7.064 55.84-8.024 6.688-0.352 13.64-1.616 19.864-4.04 7.744-3.024 13.04-1.024 18.16 4.72 2.816 3.16 5.888 6.6 9.584 8.304 16.12 7.4 27.04 20.736 39.264 32.696 6.68 6.6 13.68 12.904 20.72 19.12 2.992 2.64 8.184 4.16 6.4 8.992-0.504 1.44-6.16 1.568-9.44 1.36a62.96 62.96 0 0 1-12.624-2.208c-17.408-4.672-34.184-0.24-50.656 4.24-6.2 1.664-11.68 6.88-16.896 11.168-4.904 4.08-6.512 10.696-4.184 13.68 3.376 4.2 7.656 2.184 11.776 1.472 23.312-3.88 46.304-0.2 68.96 4.32 12.76 2.576 25.392 4.4 38.24 3.76 8.744-0.504 14.92 2.16 18.656 10.264 8.208 17.92 16.976 35.6 24.72 53.68 6.144 14.376 6.768 30.04 7.952 45.4 0.432 5.744-2.896 9.56-7.48 12.56-10.776 6.984-22.528 8.672-34.48 4.64-13.792-4.664-27.232-10.352-40.824-15.536-3.16-1.232-6.296-2.608-9.584-3.296-1.264-0.24-3.328 0.88-4.24 2-0.88 1.104-1.544 3.392-0.976 4.512 2.672 5.344 6.056 10.32 8.68 15.728 10.24 20.96 27.632 31.92 49.84 36.776 7.712 1.712 15.144 2.48 22.856 0.56 4.144-1.04 8.36-1.88 12.608-2.56 4.672-0.72 7.8 2.048 8.024 7.304 0.32 6.88 0.528 13.728 0.4 20.6-0.4 25.52 4.84 32.896-29.088 25.2zM755.392 438.64c-7.984-0.12-15 2.52-21.824 6.6-14.72 8.848-30.04 16.4-46.464 21.76-7.728 2.528-13.92 0.48-18.384-5.24-6.848-8.768-12.816-18.2-18.944-27.536-1.32-2.016-2.456-4.88-2.176-7.152 2.216-16.64 5.84-32.032 25.256-37.816 7.064-2.096 13.48-7.136 19.544-11.68 5.36-4.08 3.792-12.696-2.304-14.56-26.8-8.216-49.104 2.536-59.2 18.752-3.6 5.8-6.296 12.184-9.36 18.304-3.576 7.12-4.856 8.128-11.616 6.672-32.144-6.816-58.832 4.048-82.224 25.328-3.776 3.416-7.168 7.632-5.6 13.456 0.912 3.44 7.152 5.088 13.696 3.552 3.328-0.8 6.464-2.448 9.8-3.04 11.8-1.976 23.648-3.696 35.6-5.52 11.16 1.152 21.44 3.92 30.08 12.352 11.296 11.04 17 25.68 26.24 37.976-1.12 8.32-2.704 16.608-3.2 24.976-0.432 6.8-0.04 13.736 0.88 20.496 0.896 6.992-1.416 11.624-7.728 14.376-15.92 6.96-29.864 16.896-41.92 29.28-4.08 4.176-7.424 9.416-9.84 14.752-1.104 2.456 0 6.704 1.472 9.424 2.176 4.096 6.64 5.856 11.024 4.4 4.776-1.624 9.152-4.4 13.616-6.848 13.52-7.4 26.912-14.984 40.48-22.296 4.128-2.256 8.36-1.624 11.648 1.92a85.416 85.416 0 0 0 24.464 18.344c11.008 5.496 19.84 2.336 28.504-4.32 4.896-3.808 6.32-11.456 2.24-16.176a109.16 109.16 0 0 0-16.688-15.704c-10.376-7.704-16-17.568-16.384-30.456-0.144-5.136-0.4-10.28-0.36-15.44 0.016-3.92 2.304-6.16 6.16-6.816 24.096-3.96 45.576-14.544 66.736-26.048a63.12 63.12 0 0 0 21.12-18.48c3.76-5.224 5.176-10.88 1.96-16.848-3.44-6.44-8.64-10.584-16.336-10.696z" p-id="2310" fill="#FFDB6E"></path></svg>