<svg width="886" height="903" xmlns="http://www.w3.org/2000/svg" xmlns:xlink="http://www.w3.org/1999/xlink" xml:space="preserve" overflow="hidden"><defs><clipPath id="clip0"><rect x="1622" y="673" width="886" height="903"/></clipPath><clipPath id="clip1"><rect x="1746" y="1027" width="511" height="550"/></clipPath><clipPath id="clip2"><rect x="1746" y="1027" width="511" height="550"/></clipPath><clipPath id="clip3"><rect x="1746" y="1027" width="511" height="550"/></clipPath><clipPath id="clip4"><rect x="1697" y="721" width="203" height="206"/></clipPath><clipPath id="clip5"><rect x="1697" y="721" width="203" height="206"/></clipPath><clipPath id="clip6"><rect x="1697" y="721" width="203" height="206"/></clipPath></defs><g clip-path="url(#clip0)" transform="translate(-1622 -673)"><g clip-path="url(#clip1)"><g clip-path="url(#clip2)"><g clip-path="url(#clip3)"><path d="M280.586 42.4803C237.504 40.8405 195.656 57.0637 164.937 87.3149 133.941 117.189 116.495 158.43 116.646 201.479L116.646 202.115 76.265 287.882C71.2754 298.479 75.8211 311.115 86.4182 316.104 89.2395 317.433 92.3189 318.123 95.4375 318.125L116.646 318.125 116.646 360.542C116.669 383.958 135.646 402.935 159.063 402.959L180.271 402.959 180.271 445.375C180.269 457.088 189.763 466.585 201.476 466.587 213.189 466.589 222.686 457.095 222.688 445.382 222.688 445.38 222.688 445.377 222.688 445.375L222.688 402.959C234.4 402.959 243.896 393.463 243.896 381.75 243.896 370.037 234.4 360.542 222.688 360.542L159.063 360.542 159.063 296.917C159.063 285.204 149.567 275.709 137.854 275.709L128.862 275.709 157.281 215.392C158.742 212.317 159.434 208.932 159.296 205.53L159.063 201.479C158.954 169.913 171.749 139.673 194.48 117.77 217.179 95.8377 247.763 83.986 279.314 84.8971 343.647 88.913 393.443 142.82 392.354 207.269L350.637 366.416C349.663 370.135 349.707 374.046 350.765 377.742L371.973 451.25C375.226 462.499 386.974 468.99 398.229 465.756 409.484 462.514 415.98 450.761 412.737 439.506 412.736 439.504 412.736 439.502 412.735 439.5L393.139 371.634 434.071 217.513C434.537 215.752 434.771 213.907 434.771 212.084L434.771 207.248C435.711 119.929 367.775 47.3303 280.586 42.4803Z" fill="#FFDB6E" transform="matrix(1 0 0 1.07859 1747 1027)"/></g></g></g><path d="M2150.62 774.294C2146.09 739.718 2169.4 707.876 2202.68 703.173 2216.16 701.267 2229.87 704.116 2241.61 711.264 2254.05 686.896 2283.13 677.635 2306.55 690.579 2310.64 692.842 2314.4 695.711 2317.71 699.096 2327.4 678.896 2351 670.69 2370.43 680.766 2375.8 683.555 2380.49 687.588 2384.13 692.556 2399.75 673.454 2427.35 671.094 2445.78 687.286 2453.52 694.091 2458.74 703.477 2460.54 713.835 2486.13 721.09 2501.23 748.572 2494.26 775.217 2493.67 777.457 2492.94 779.652 2492.06 781.786 2512.58 809.549 2507.56 849.343 2480.84 870.667 2472.52 877.306 2462.7 881.603 2452.31 883.146 2452.08 913.016 2428.57 937.036 2399.8 936.796 2390.19 936.716 2380.79 933.876 2372.64 928.591 2362.91 962.079 2328.96 981.006 2296.83 970.867 2283.36 966.618 2271.72 957.632 2263.9 945.441 2231 966.065 2188.29 954.971 2168.51 920.662 2168.26 920.229 2168.01 919.794 2167.77 919.356 2146.24 921.976 2126.73 906.007 2124.2 883.69 2122.85 871.795 2126.63 859.888 2134.53 851.144 2115.89 839.737 2109.62 814.699 2120.54 795.221 2126.84 783.983 2137.89 776.554 2150.29 775.219Z" stroke="#FFDB6E" stroke-width="4.58333" stroke-miterlimit="8" fill="none" fill-rule="evenodd"/><path d="M2126.64 1076.32C2126.64 1080.87 2122.95 1084.57 2118.39 1084.57 2113.83 1084.57 2110.14 1080.87 2110.14 1076.32 2110.14 1071.76 2113.83 1068.07 2118.39 1068.07 2122.95 1068.07 2126.64 1071.76 2126.64 1076.32Z" stroke="#FFDB6E" stroke-width="4.58333" stroke-miterlimit="8" fill="none" fill-rule="evenodd"/><path d="M2162.91 1039.41C2162.91 1048.53 2155.53 1055.91 2146.41 1055.91 2137.3 1055.91 2129.91 1048.53 2129.91 1039.41 2129.91 1030.3 2137.3 1022.91 2146.41 1022.91 2155.53 1022.91 2162.91 1030.3 2162.91 1039.41Z" stroke="#FFDB6E" stroke-width="4.58333" stroke-miterlimit="8" fill="none" fill-rule="evenodd"/><path d="M2209.17 989.371C2209.17 1003.04 2198.09 1014.12 2184.42 1014.12 2170.75 1014.12 2159.67 1003.04 2159.67 989.371 2159.67 975.702 2170.75 964.621 2184.42 964.621 2198.09 964.621 2209.17 975.702 2209.17 989.371Z" stroke="#FFDB6E" stroke-width="4.58333" stroke-miterlimit="8" fill="none" fill-rule="evenodd"/><path d="M2157.76 855.467C2149.8 856.115 2141.84 854.202 2134.95 849.987M2177.88 915.431C2174.68 916.755 2171.33 917.637 2167.9 918.053M2263.88 944.244C2261.47 940.491 2259.45 936.48 2257.87 932.281M2375.08 914.413C2374.72 918.864 2373.92 923.264 2372.68 927.539M2422.82 833.309C2440.87 842.437 2452.26 861.522 2452.1 882.366M2491.88 781.059C2488.95 788.156 2484.49 794.453 2478.84 799.454M2460.59 712.804C2461.09 715.67 2461.32 718.579 2461.28 721.491M2377.34 702.67C2379.04 698.662 2381.28 694.93 2384.02 691.591M2314.87 707.95C2315.56 704.638 2316.65 701.428 2318.11 698.395M2241.56 711.195C2245.81 713.781 2249.74 716.894 2253.27 720.465M2152.66 784.049C2151.73 780.859 2151.05 777.598 2150.62 774.296" stroke="#FFDB6E" stroke-width="4.58333" stroke-miterlimit="8" fill="none" fill-rule="evenodd"/><path d="M2220 767 2410.87 767" stroke="#FFDB6E" stroke-width="13.75" stroke-miterlimit="8" fill="none" fill-rule="evenodd"/><path d="M2220 826 2410.87 826" stroke="#FFDB6E" stroke-width="13.75" stroke-miterlimit="8" fill="none" fill-rule="evenodd"/><path d="M2220 886 2371.75 886" stroke="#FFDB6E" stroke-width="13.75" stroke-miterlimit="8" fill="none" fill-rule="evenodd"/><path d="M1660.71 774.294C1656.17 739.718 1679.54 707.876 1712.9 703.173 1726.42 701.267 1740.16 704.116 1751.94 711.264 1764.41 686.896 1793.56 677.635 1817.04 690.579 1821.15 692.842 1824.91 695.711 1828.23 699.096 1837.94 678.896 1861.61 670.69 1881.08 680.766 1886.47 683.555 1891.17 687.588 1894.83 692.556 1910.48 673.454 1938.15 671.094 1956.63 687.286 1964.39 694.091 1969.62 703.477 1971.43 713.835 1997.08 721.09 2012.22 748.572 2005.23 775.217 2004.64 777.457 2003.91 779.652 2003.03 781.786 2023.6 809.549 2018.57 849.343 1991.78 870.667 1983.44 877.306 1973.59 881.603 1963.18 883.146 1962.95 913.016 1939.38 937.036 1910.54 936.796 1900.9 936.716 1891.47 933.876 1883.3 928.591 1873.54 962.079 1839.51 981.007 1807.29 970.867 1793.79 966.618 1782.12 957.632 1774.28 945.441 1741.29 966.065 1698.47 954.971 1678.64 920.662 1678.39 920.229 1678.15 919.794 1677.91 919.356 1656.32 921.976 1636.76 906.007 1634.22 883.69 1632.87 871.795 1636.66 859.888 1644.58 851.144 1625.89 839.737 1619.61 814.699 1630.55 795.221 1636.87 783.983 1647.95 776.554 1660.38 775.219Z" stroke="#FFDB6E" stroke-width="4.58333" stroke-miterlimit="8" fill="none" fill-rule="evenodd"/><path d="M1969.1 1065.61C1969.1 1070.17 1965.41 1073.86 1960.85 1073.86 1956.3 1073.86 1952.6 1070.17 1952.6 1065.61 1952.6 1061.05 1956.3 1057.36 1960.85 1057.36 1965.41 1057.36 1969.1 1061.05 1969.1 1065.61Z" stroke="#FFDB6E" stroke-width="4.58333" stroke-miterlimit="8" fill="none" fill-rule="evenodd"/><path d="M1959.63 1035.1C1959.63 1044.21 1952.24 1051.6 1943.13 1051.6 1934.02 1051.6 1926.63 1044.21 1926.63 1035.1 1926.63 1025.98 1934.02 1018.6 1943.13 1018.6 1952.24 1018.6 1959.63 1025.98 1959.63 1035.1Z" stroke="#FFDB6E" stroke-width="4.58333" stroke-miterlimit="8" fill="none" fill-rule="evenodd"/><path d="M1941.87 990.317C1941.87 1003.99 1930.78 1015.07 1917.12 1015.07 1903.45 1015.07 1892.37 1003.99 1892.37 990.317 1892.37 976.648 1903.45 965.567 1917.12 965.567 1930.78 965.567 1941.87 976.648 1941.87 990.317Z" stroke="#FFDB6E" stroke-width="4.58333" stroke-miterlimit="8" fill="none" fill-rule="evenodd"/><path d="M1667.87 855.467C1659.89 856.115 1651.91 854.202 1645 849.987M1688.04 915.431C1684.84 916.755 1681.47 917.637 1678.04 918.053M1774.26 944.244C1771.85 940.491 1769.82 936.48 1768.23 932.281M1885.74 914.413C1885.39 918.864 1884.58 923.264 1883.34 927.539M1933.61 833.309C1951.7 842.437 1963.12 861.522 1962.96 882.366M2002.84 781.059C1999.91 788.156 1995.44 794.453 1989.77 799.454M1971.48 712.804C1971.98 715.67 1972.21 718.579 1972.17 721.491M1888.01 702.67C1889.71 698.662 1891.97 694.93 1894.71 691.591M1825.38 707.95C1826.08 704.638 1827.17 701.428 1828.63 698.395M1751.89 711.195C1756.15 713.781 1760.09 716.894 1763.62 720.465M1662.76 784.049C1661.83 780.859 1661.14 777.598 1660.71 774.296" stroke="#FFDB6E" stroke-width="4.58333" stroke-miterlimit="8" fill="none" fill-rule="evenodd"/><g clip-path="url(#clip4)"><g clip-path="url(#clip5)"><g clip-path="url(#clip6)"><path d="M152.25 151.404 123.301 105.264C122.783 104.418 121.861 103.905 120.869 103.911 119.873 103.91 118.947 104.421 118.417 105.264L109.958 118.839 128.101 148.19C129.637 150.512 129.967 153.429 128.989 156.035L149.501 156.035C151.181 156.119 152.61 154.825 152.694 153.146 152.725 152.534 152.57 151.927 152.25 151.404Z" fill="#FFDB6E" transform="matrix(1 0 0 1.00493 1697 722)"/><path d="M120.743 151.679 74.7505 76.8439C74.1603 76.0816 73.24 75.6489 72.2764 75.6809L71.8958 75.6809 71.5151 75.6809C70.5515 75.6489 69.6313 76.0816 69.0411 76.8439L23.0489 151.679C22.3974 152.591 22.3078 153.789 22.8163 154.787 23.3293 155.692 24.3462 156.188 25.375 156.035L118.417 156.035C119.445 156.188 120.462 155.692 120.975 154.787 121.484 153.789 121.394 152.591 120.743 151.679ZM79.5928 111.904 72.2764 118.417 64.9599 111.904 52.8645 119.22 71.8958 88.3684 90.4195 118.417Z" fill="#FFDB6E" transform="matrix(1 0 0 1.00493 1697 722)"/><path d="M50.75 80.3541C50.75 83.8576 47.9098 86.6978 44.4062 86.6978 40.9027 86.6978 38.0625 83.8576 38.0625 80.3541 38.0625 76.8505 40.9027 74.0103 44.4062 74.0103 47.9098 74.0103 50.75 76.8505 50.75 80.3541Z" fill="#FFDB6E" transform="matrix(1 0 0 1.00493 1697 722)"/><path d="M196.656 27.4896 27.4896 27.4896 27.4896 50.75 4.22916 50.75 4.22916 181.41 173.396 181.41 173.396 158.15 196.656 158.15ZM160.708 169.167 16.9167 169.167 16.9167 62.9934 160.708 62.9934ZM183.969 145.906 173.396 145.906 173.396 50.75 40.177 50.75 40.177 40.177 183.969 40.177Z" fill="#FFDB6E" transform="matrix(1 0 0 1.00493 1697 722)"/></g></g></g></g></svg>