<svg width="991" height="810" xmlns="http://www.w3.org/2000/svg" xmlns:xlink="http://www.w3.org/1999/xlink" xml:space="preserve" overflow="hidden"><defs><clipPath id="clip0"><rect x="1552" y="655" width="991" height="810"/></clipPath><clipPath id="clip1"><rect x="1844" y="1082" width="356" height="384"/></clipPath><clipPath id="clip2"><rect x="1844" y="1082" width="356" height="384"/></clipPath><clipPath id="clip3"><rect x="1844" y="1082" width="356" height="384"/></clipPath><clipPath id="clip4"><rect x="1639" y="690" width="325" height="327"/></clipPath><clipPath id="clip5"><rect x="1639" y="690" width="325" height="327"/></clipPath><clipPath id="clip6"><rect x="1639" y="690" width="325" height="327"/></clipPath></defs><g clip-path="url(#clip0)" transform="translate(-1552 -655)"><g clip-path="url(#clip1)"><g clip-path="url(#clip2)"><g clip-path="url(#clip3)"><path d="M195.694 29.6277C165.646 28.484 136.46 39.7988 115.035 60.8974 93.4163 81.7329 81.2493 110.497 81.3543 140.521L81.3543 140.965 53.1907 200.782C49.7108 208.173 52.8811 216.986 60.272 220.466 62.2398 221.392 64.3875 221.873 66.5625 221.875L81.3543 221.875 81.3543 251.458C81.3706 267.79 94.6058 281.026 110.938 281.042L125.729 281.042 125.729 310.625C125.728 318.794 132.35 325.418 140.519 325.419 148.688 325.42 155.311 318.799 155.313 310.63 155.313 310.628 155.313 310.626 155.313 310.625L155.313 281.042C163.482 281.042 170.104 274.419 170.104 266.25 170.104 258.081 163.482 251.458 155.313 251.458L110.938 251.458 110.938 207.083C110.938 198.914 104.315 192.292 96.1457 192.292L89.8743 192.292 109.695 150.224C110.714 148.079 111.197 145.719 111.1 143.346L110.938 140.521C110.862 118.505 119.785 97.4142 135.639 82.1381 151.471 66.8416 172.801 58.5757 194.806 59.2112 239.675 62.012 274.405 99.6091 273.646 144.559L244.551 255.556C243.871 258.149 243.902 260.877 244.639 263.454L259.431 314.722C261.7 322.568 269.893 327.095 277.743 324.84 285.593 322.578 290.123 314.381 287.862 306.531 287.861 306.53 287.861 306.529 287.861 306.528L274.193 259.194 302.741 151.703C303.066 150.476 303.229 149.189 303.229 147.917L303.229 144.544C303.885 83.6441 256.503 33.0104 195.694 29.6277Z" fill="#FFDB6E" transform="matrix(1 0 0 1.07887 1845 1082)"/></g></g></g><path d="M2098.51 788.396C2092.91 743.111 2121.78 701.405 2163.02 695.245 2179.72 692.749 2196.71 696.481 2211.26 705.842 2226.68 673.926 2262.7 661.796 2291.72 678.75 2296.8 681.714 2301.46 685.471 2305.55 689.905 2317.56 663.448 2346.8 652.7 2370.87 665.897 2377.53 669.55 2383.34 674.832 2387.86 681.339 2407.21 656.32 2441.41 653.23 2464.24 674.437 2473.83 683.35 2480.3 695.643 2482.53 709.21 2514.24 718.712 2532.94 754.707 2524.31 789.606 2523.58 792.54 2522.67 795.414 2521.58 798.209 2547.01 834.573 2540.79 886.694 2507.68 914.624 2497.37 923.318 2485.2 928.947 2472.34 930.967 2472.05 970.09 2442.92 1001.55 2407.27 1001.24 2395.36 1001.13 2383.71 997.412 2373.61 990.49 2361.55 1034.35 2319.5 1059.14 2279.68 1045.86 2262.99 1040.3 2248.57 1028.53 2238.88 1012.56 2198.11 1039.57 2145.19 1025.04 2120.68 980.104 2120.37 979.538 2120.07 978.968 2119.77 978.394 2093.08 981.825 2068.91 960.911 2065.78 931.68 2064.11 916.1 2068.8 900.505 2078.58 889.052 2055.48 874.112 2047.72 841.318 2061.25 815.806 2069.05 801.087 2082.74 791.358 2098.11 789.608Z" stroke="#FFDB6E" stroke-width="10.3125" stroke-miterlimit="8" fill="none" fill-rule="evenodd"/><path d="M2102.19 1126.24C2102.19 1132.2 2097.35 1137.04 2091.39 1137.04 2085.42 1137.04 2080.58 1132.2 2080.58 1126.24 2080.58 1120.27 2085.42 1115.43 2091.39 1115.43 2097.35 1115.43 2102.19 1120.27 2102.19 1126.24Z" stroke="#FFDB6E" stroke-width="10.3125" stroke-miterlimit="8" fill="none" fill-rule="evenodd"/><path d="M2135.27 1096.55C2135.27 1108.48 2125.6 1118.16 2113.66 1118.16 2101.73 1118.16 2092.05 1108.48 2092.05 1096.55 2092.05 1084.61 2101.73 1074.93 2113.66 1074.93 2125.6 1074.93 2135.27 1084.61 2135.27 1096.55Z" stroke="#FFDB6E" stroke-width="10.3125" stroke-miterlimit="8" fill="none" fill-rule="evenodd"/><path d="M2181.32 1049.57C2181.32 1067.47 2166.81 1081.99 2148.9 1081.99 2131 1081.99 2116.49 1067.47 2116.49 1049.57 2116.49 1031.67 2131 1017.15 2148.9 1017.15 2166.81 1017.15 2181.32 1031.67 2181.32 1049.57Z" stroke="#FFDB6E" stroke-width="10.3125" stroke-miterlimit="8" fill="none" fill-rule="evenodd"/><path d="M2107.36 894.714C2097.5 895.562 2087.64 893.058 2079.1 887.537M2132.3 973.253C2128.33 974.987 2124.17 976.142 2119.93 976.687M2238.85 1010.99C2235.87 1006.08 2233.37 1000.82 2231.4 995.323M2376.63 971.92C2376.2 977.75 2375.2 983.513 2373.66 989.112M2435.79 865.692C2458.15 877.648 2472.27 902.645 2472.07 929.946M2521.36 797.257C2517.74 806.554 2512.21 814.8 2505.2 821.351M2482.6 707.859C2483.21 711.613 2483.5 715.424 2483.45 719.238M2379.44 694.586C2381.54 689.337 2384.33 684.449 2387.71 680.075M2302.04 701.502C2302.89 697.164 2304.24 692.96 2306.04 688.987M2211.2 705.752C2216.47 709.139 2221.34 713.216 2225.71 717.894M2101.05 801.174C2099.9 796.996 2099.05 792.724 2098.52 788.4" stroke="#FFDB6E" stroke-width="10.3125" stroke-miterlimit="8" fill="none" fill-rule="evenodd"/><path d="M2136 791 2460.8 791" stroke="#FFDB6E" stroke-width="27.5" stroke-miterlimit="8" fill="none" fill-rule="evenodd"/><path d="M2136 859 2460.8 859" stroke="#FFDB6E" stroke-width="27.5" stroke-miterlimit="8" fill="none" fill-rule="evenodd"/><path d="M2136 926 2369.86 926" stroke="#FFDB6E" stroke-width="27.5" stroke-miterlimit="8" fill="none" fill-rule="evenodd"/><path d="M1601.51 804.397C1595.91 759.111 1624.78 717.406 1666.02 711.245 1682.72 708.749 1699.71 712.481 1714.26 721.843 1729.68 689.926 1765.7 677.796 1794.72 694.75 1799.8 697.714 1804.46 701.472 1808.55 705.905 1820.56 679.449 1849.8 668.7 1873.87 681.897 1880.53 685.55 1886.34 690.833 1890.86 697.339 1910.21 672.32 1944.41 669.23 1967.24 690.437 1976.83 699.35 1983.3 711.643 1985.53 725.21 2017.24 734.712 2035.94 770.707 2027.31 805.606 2026.58 808.54 2025.67 811.415 2024.58 814.209 2050.01 850.573 2043.79 902.694 2010.68 930.624 2000.37 939.318 1988.2 944.947 1975.34 946.967 1975.05 986.089 1945.92 1017.55 1910.27 1017.24 1898.36 1017.13 1886.71 1013.41 1876.61 1006.49 1864.55 1050.35 1822.5 1075.14 1782.68 1061.86 1765.99 1056.3 1751.57 1044.53 1741.88 1028.56 1701.11 1055.57 1648.19 1041.04 1623.68 996.104 1623.37 995.538 1623.07 994.968 1622.77 994.394 1596.08 997.825 1571.91 976.91 1568.78 947.68 1567.11 932.1 1571.8 916.505 1581.58 905.052 1558.48 890.112 1550.72 857.318 1564.25 831.806 1572.05 817.088 1585.74 807.358 1601.11 805.608Z" stroke="#FFDB6E" stroke-width="10.3125" stroke-miterlimit="8" fill="none" fill-rule="evenodd"/><path d="M2028.29 1102.94C2028.29 1108.91 2023.45 1113.74 2017.49 1113.74 2011.52 1113.74 2006.68 1108.91 2006.68 1102.94 2006.68 1096.97 2011.52 1092.13 2017.49 1092.13 2023.45 1092.13 2028.29 1096.97 2028.29 1102.94Z" stroke="#FFDB6E" stroke-width="10.3125" stroke-miterlimit="8" fill="none" fill-rule="evenodd"/><path d="M2019.61 1082.12C2019.61 1094.05 2009.94 1103.73 1998 1103.73 1986.06 1103.73 1976.39 1094.05 1976.39 1082.12 1976.39 1070.18 1986.06 1060.51 1998 1060.51 2009.94 1060.51 2019.61 1070.18 2019.61 1082.12Z" stroke="#FFDB6E" stroke-width="10.3125" stroke-miterlimit="8" fill="none" fill-rule="evenodd"/><path d="M1996.16 1045.52C1996.16 1063.42 1981.65 1077.94 1963.75 1077.94 1945.84 1077.94 1931.33 1063.42 1931.33 1045.52 1931.33 1027.62 1945.84 1013.1 1963.75 1013.1 1981.65 1013.1 1996.16 1027.62 1996.16 1045.52Z" stroke="#FFDB6E" stroke-width="10.3125" stroke-miterlimit="8" fill="none" fill-rule="evenodd"/><path d="M1610.36 910.714C1600.5 911.562 1590.64 909.058 1582.1 903.537M1635.3 989.253C1631.33 990.987 1627.17 992.142 1622.93 992.687M1741.85 1026.99C1738.87 1022.08 1736.37 1016.82 1734.4 1011.32M1879.63 987.92C1879.2 993.75 1878.2 999.513 1876.66 1005.11M1938.79 881.692C1961.16 893.648 1975.27 918.645 1975.07 945.946M2024.36 813.257C2020.74 822.554 2015.21 830.8 2008.2 837.351M1985.6 723.859C1986.21 727.613 1986.5 731.424 1986.45 735.238M1882.44 710.586C1884.54 705.337 1887.33 700.449 1890.71 696.075M1805.04 717.502C1805.89 713.164 1807.24 708.96 1809.04 704.987M1714.2 721.752C1719.47 725.14 1724.34 729.217 1728.71 733.894M1604.05 817.174C1602.9 812.996 1602.05 808.724 1601.52 804.4" stroke="#FFDB6E" stroke-width="10.3125" stroke-miterlimit="8" fill="none" fill-rule="evenodd"/><g clip-path="url(#clip4)"><g clip-path="url(#clip5)"><g clip-path="url(#clip6)"><path d="M243 241.65 196.796 168.008C195.97 166.658 194.498 165.839 192.915 165.848 191.325 165.847 189.847 166.663 189 168.008L175.5 189.675 204.458 236.52C206.908 240.226 207.435 244.881 205.875 249.041L238.613 249.041C241.293 249.175 243.575 247.111 243.709 244.43 243.758 243.453 243.511 242.484 243 241.65Z" fill="#FFDB6E" transform="matrix(1 0 0 1.00309 1639 691)"/><path d="M192.713 242.089 119.306 122.648C118.364 121.431 116.896 120.74 115.358 120.791L114.75 120.791 114.143 120.791C112.605 120.74 111.136 121.431 110.194 122.648L36.7875 242.089C35.7477 243.544 35.6046 245.457 36.4163 247.05 37.235 248.494 38.8581 249.285 40.5 249.041L189 249.041C190.642 249.285 192.265 248.494 193.084 247.05 193.896 245.457 193.752 243.544 192.713 242.089ZM127.035 178.605 115.358 189 103.68 178.605 84.375 190.283 114.75 141.041 144.315 189Z" fill="#FFDB6E" transform="matrix(1 0 0 1.00309 1639 691)"/><path d="M81 128.25C81 133.842 76.4669 138.375 70.875 138.375 65.2831 138.375 60.75 133.842 60.75 128.25 60.75 122.658 65.2831 118.125 70.875 118.125 76.4669 118.125 81 122.658 81 128.25Z" fill="#FFDB6E" transform="matrix(1 0 0 1.00309 1639 691)"/><path d="M313.875 43.875 43.875 43.875 43.875 81 6.75 81 6.75 289.541 276.75 289.541 276.75 252.416 313.875 252.416ZM256.5 270 27 270 27 100.541 256.5 100.541ZM293.625 232.875 276.75 232.875 276.75 81 64.125 81 64.125 64.125 293.625 64.125Z" fill="#FFDB6E" transform="matrix(1 0 0 1.00309 1639 691)"/></g></g></g></g></svg>