<svg width="1215" height="1068" xmlns="http://www.w3.org/2000/svg" xmlns:xlink="http://www.w3.org/1999/xlink" xml:space="preserve" overflow="hidden"><defs><clipPath id="clip0"><rect x="1486" y="613" width="1215" height="1068"/></clipPath><clipPath id="clip1"><rect x="1708" y="941" width="740" height="740"/></clipPath><clipPath id="clip2"><rect x="1708" y="941" width="740" height="740"/></clipPath><clipPath id="clip3"><rect x="1708" y="941" width="740" height="740"/></clipPath><clipPath id="clip4"><rect x="1560" y="668" width="170" height="171"/></clipPath><clipPath id="clip5"><rect x="1560" y="668" width="170" height="171"/></clipPath><clipPath id="clip6"><rect x="1560" y="668" width="170" height="171"/></clipPath><clipPath id="clip7"><rect x="1800" y="638" width="171" height="170"/></clipPath><clipPath id="clip8"><rect x="1800" y="638" width="171" height="170"/></clipPath><clipPath id="clip9"><rect x="1800" y="638" width="171" height="170"/></clipPath><clipPath id="clip10"><rect x="1712" y="755" width="171" height="171"/></clipPath><clipPath id="clip11"><rect x="1712" y="755" width="171" height="171"/></clipPath><clipPath id="clip12"><rect x="1712" y="755" width="171" height="171"/></clipPath></defs><g clip-path="url(#clip0)" transform="translate(-1486 -613)"><g clip-path="url(#clip1)"><g clip-path="url(#clip2)"><g clip-path="url(#clip3)"><path d="M2115.37 1003.68C2052.82 1001.29 1992.07 1024.85 1947.47 1068.77 1902.46 1112.14 1877.14 1172.02 1877.35 1234.52L1877.35 1235.44 1818.73 1359.97C1811.48 1375.35 1818.08 1393.7 1833.47 1400.94 1837.56 1402.87 1842.04 1403.87 1846.56 1403.87L1877.35 1403.87 1877.35 1465.46C1877.39 1499.46 1904.94 1527.01 1938.94 1527.04L1969.73 1527.04 1969.73 1588.62C1969.73 1605.63 1983.51 1619.42 2000.52 1619.42 2017.52 1619.42 2031.31 1605.64 2031.31 1588.63 2031.31 1588.63 2031.31 1588.63 2031.31 1588.62L2031.31 1527.04C2048.32 1527.04 2062.1 1513.26 2062.1 1496.25 2062.1 1479.24 2048.32 1465.46 2031.31 1465.46L1938.94 1465.46 1938.94 1373.08C1938.94 1356.08 1925.15 1342.29 1908.15 1342.29L1895.09 1342.29 1936.35 1254.72C1938.47 1250.26 1939.48 1245.34 1939.28 1240.4L1938.94 1234.52C1938.78 1188.69 1957.36 1144.79 1990.36 1112.99 2023.32 1081.14 2067.72 1063.94 2113.53 1065.26 2206.93 1071.09 2279.23 1149.35 2277.65 1242.93L2217.08 1473.99C2215.66 1479.39 2215.73 1485.07 2217.26 1490.43L2248.06 1597.15C2252.78 1613.49 2269.83 1622.91 2286.18 1618.22 2302.52 1613.51 2311.95 1596.44 2307.24 1580.1 2307.24 1580.1 2307.24 1580.1 2307.24 1580.1L2278.79 1481.56 2338.21 1257.8C2338.89 1255.24 2339.23 1252.56 2339.23 1249.92L2339.23 1242.9C2340.59 1116.12 2241.96 1010.72 2115.37 1003.68Z" fill="#FFDB6E"/></g></g></g><path d="M2209.89 726.932C2203.65 687.583 2235.77 651.346 2281.62 645.994 2300.2 643.825 2319.09 647.067 2335.27 655.201 2352.41 627.469 2392.47 616.93 2424.74 631.661 2430.39 634.236 2435.57 637.501 2440.12 641.353 2453.47 618.365 2485.99 609.026 2512.76 620.493 2520.17 623.667 2526.63 628.257 2531.65 633.911 2553.17 612.172 2591.2 609.486 2616.59 627.913 2627.26 635.657 2634.45 646.339 2636.93 658.127 2672.19 666.384 2692.99 697.659 2683.39 727.983 2682.58 730.532 2681.57 733.03 2680.36 735.458 2708.64 767.055 2701.71 812.342 2664.9 836.61 2653.43 844.164 2639.9 849.055 2625.59 850.811 2625.27 884.804 2592.88 912.14 2553.24 911.867 2540 911.776 2527.04 908.544 2515.81 902.53 2502.4 940.64 2455.63 962.181 2411.35 950.642 2392.79 945.806 2376.76 935.579 2365.98 921.706 2320.64 945.177 2261.79 932.552 2234.54 893.505 2234.19 893.013 2233.86 892.518 2233.52 892.02 2203.85 895.001 2176.97 876.828 2173.49 851.43 2171.63 837.893 2176.84 824.343 2187.72 814.391 2162.03 801.41 2153.4 772.915 2168.45 750.748 2177.13 737.959 2192.35 729.505 2209.44 727.985Z" stroke="#FFDB6E" stroke-width="4.58333" stroke-miterlimit="8" fill="none" fill-rule="evenodd"/><path d="M2233.41 1020.55C2233.41 1025.73 2229.2 1029.94 2224.02 1029.94 2218.83 1029.94 2214.63 1025.73 2214.63 1020.55 2214.63 1015.36 2218.83 1011.16 2224.02 1011.16 2229.2 1011.16 2233.41 1015.36 2233.41 1020.55Z" stroke="#FFDB6E" stroke-width="4.58333" stroke-miterlimit="8" fill="none" fill-rule="evenodd"/><path d="M2264.34 995.691C2264.34 1006.06 2255.94 1014.47 2245.56 1014.47 2235.19 1014.47 2226.79 1006.06 2226.79 995.691 2226.79 985.32 2235.19 976.913 2245.56 976.913 2255.94 976.913 2264.34 985.32 2264.34 995.691Z" stroke="#FFDB6E" stroke-width="4.58333" stroke-miterlimit="8" fill="none" fill-rule="evenodd"/><path d="M2307.58 956.647C2307.58 972.203 2294.97 984.813 2279.41 984.813 2263.85 984.813 2251.24 972.203 2251.24 956.647 2251.24 941.091 2263.85 928.48 2279.41 928.48 2294.97 928.48 2307.58 941.091 2307.58 956.647Z" stroke="#FFDB6E" stroke-width="4.58333" stroke-miterlimit="8" fill="none" fill-rule="evenodd"/><path d="M2219.73 819.311C2208.76 820.048 2197.79 817.872 2188.3 813.075M2247.46 887.552C2243.05 889.06 2238.42 890.063 2233.71 890.537M2365.95 920.343C2362.63 916.072 2359.85 911.508 2357.66 906.729M2519.17 886.394C2518.68 891.46 2517.57 896.468 2515.86 901.333M2584.95 794.094C2609.82 804.482 2625.52 826.202 2625.29 849.924M2680.1 734.631C2676.08 742.709 2669.93 749.874 2662.14 755.566M2637 656.954C2637.69 660.215 2638.01 663.526 2637.95 666.841M2522.28 645.421C2524.62 640.86 2527.72 636.612 2531.48 632.812M2436.21 651.43C2437.17 647.66 2438.66 644.008 2440.67 640.556M2335.2 655.123C2341.06 658.066 2346.47 661.609 2351.33 665.673M2212.71 738.034C2211.43 734.404 2210.49 730.693 2209.89 726.935" stroke="#FFDB6E" stroke-width="4.58333" stroke-miterlimit="8" fill="none" fill-rule="evenodd"/><path d="M2321 715 2575.83 715" stroke="#FFDB6E" stroke-width="13.75" stroke-miterlimit="8" fill="none" fill-rule="evenodd"/><path d="M2321 776 2575.83 776" stroke="#FFDB6E" stroke-width="13.75" stroke-miterlimit="8" fill="none" fill-rule="evenodd"/><path d="M2321 838 2469.5 838" stroke="#FFDB6E" stroke-width="13.75" stroke-miterlimit="8" fill="none" fill-rule="evenodd"/><path d="M1537.89 748.599C1531.65 709.367 1563.77 673.237 1609.62 667.9 1628.2 665.738 1647.09 668.971 1663.27 677.081 1680.41 649.431 1720.47 638.923 1752.74 653.61 1758.39 656.178 1763.57 659.433 1768.12 663.274 1781.47 640.354 1813.99 631.042 1840.76 642.475 1848.17 645.64 1854.63 650.216 1859.65 655.853 1881.17 634.179 1919.2 631.501 1944.59 649.873 1955.26 657.595 1962.45 668.245 1964.93 679.998 2000.19 688.23 2020.99 719.413 2011.39 749.647 2010.58 752.189 2009.57 754.679 2008.36 757.1 2036.64 788.603 2029.71 833.757 1992.9 857.953 1981.43 865.485 1967.9 870.361 1953.59 872.112 1953.27 906.004 1920.88 933.259 1881.24 932.987 1868 932.896 1855.04 929.674 1843.81 923.678 1830.4 961.675 1783.63 983.152 1739.35 971.647 1720.79 966.826 1704.76 956.629 1693.98 942.797 1648.64 966.199 1589.79 953.61 1562.54 914.68 1562.19 914.189 1561.86 913.696 1561.52 913.199 1531.85 916.171 1504.97 898.052 1501.49 872.729 1499.63 859.232 1504.84 845.722 1515.72 835.8 1490.03 822.857 1481.4 794.447 1496.45 772.345 1505.13 759.594 1520.35 751.165 1537.44 749.649Z" stroke="#FFDB6E" stroke-width="4.58333" stroke-miterlimit="8" fill="none" fill-rule="evenodd"/><path d="M1985.5 1025.71C1985.5 1030.89 1981.31 1035.08 1976.14 1035.08 1970.97 1035.08 1966.78 1030.89 1966.78 1025.71 1966.78 1020.54 1970.97 1016.35 1976.14 1016.35 1981.31 1016.35 1985.5 1020.54 1985.5 1025.71Z" stroke="#FFDB6E" stroke-width="4.58333" stroke-miterlimit="8" fill="none" fill-rule="evenodd"/><path d="M1973.6 1004.25C1973.6 1014.59 1965.22 1022.98 1954.88 1022.98 1944.54 1022.98 1936.16 1014.59 1936.16 1004.25 1936.16 993.912 1944.54 985.53 1954.88 985.53 1965.22 985.53 1973.6 993.912 1973.6 1004.25Z" stroke="#FFDB6E" stroke-width="4.58333" stroke-miterlimit="8" fill="none" fill-rule="evenodd"/><path d="M1948.53 969.49C1948.53 985 1935.95 997.573 1920.44 997.573 1904.93 997.573 1892.36 985 1892.36 969.49 1892.36 953.98 1904.93 941.407 1920.44 941.407 1935.95 941.407 1948.53 953.98 1948.53 969.49Z" stroke="#FFDB6E" stroke-width="4.58333" stroke-miterlimit="8" fill="none" fill-rule="evenodd"/><path d="M1547.73 840.705C1536.76 841.44 1525.79 839.27 1516.3 834.488M1575.46 908.745C1571.05 910.247 1566.42 911.248 1561.71 911.72M1693.95 941.438C1690.63 937.18 1687.85 932.629 1685.66 927.864M1847.17 907.59C1846.68 912.641 1845.57 917.633 1843.86 922.484M1912.95 815.562C1937.82 825.92 1953.52 847.576 1953.29 871.227M2008.1 756.276C2004.08 764.329 1997.93 771.474 1990.14 777.148M1965 678.828C1965.69 682.08 1966.01 685.381 1965.95 688.686M1850.28 667.329C1852.62 662.782 1855.72 658.547 1859.48 654.758M1764.21 673.32C1765.17 669.562 1766.66 665.92 1768.67 662.478M1663.2 677.003C1669.06 679.937 1674.47 683.469 1679.33 687.521M1540.71 759.669C1539.43 756.049 1538.49 752.349 1537.89 748.602" stroke="#FFDB6E" stroke-width="4.58333" stroke-miterlimit="8" fill="none" fill-rule="evenodd"/><g clip-path="url(#clip4)"><g clip-path="url(#clip5)"><g clip-path="url(#clip6)"><path d="M136.5 114.8 112.543 76.615C112.114 75.9152 111.351 75.4905 110.53 75.495 109.706 75.4947 108.939 75.9177 108.5 76.615L101.5 87.8501 116.515 112.14C117.786 114.062 118.059 116.476 117.25 118.633L134.225 118.633C135.615 118.702 136.798 117.631 136.868 116.241 136.893 115.735 136.765 115.233 136.5 114.8Z" stroke="#FFDB6E" stroke-width="1.75" fill="#FFDB6E" transform="matrix(1 0 0 1.00595 1561 669)"/><path d="M110.425 115.028 72.3625 53.095C71.8741 52.4642 71.1125 52.1061 70.315 52.1325L70 52.1325 69.685 52.1325C68.8876 52.1061 68.126 52.4642 67.6375 53.095L29.575 115.028C29.0358 115.782 28.9616 116.774 29.3825 117.6 29.8071 118.349 30.6486 118.759 31.5 118.633L108.5 118.633C109.351 118.759 110.193 118.349 110.618 117.6 111.038 116.774 110.964 115.782 110.425 115.028ZM76.37 82.11 70.315 87.5001 64.26 82.11 54.25 88.1651 70 62.6325 85.33 87.5001Z" stroke="#FFDB6E" stroke-width="1.75" fill="#FFDB6E" transform="matrix(1 0 0 1.00595 1561 669)"/><path d="M52.5 56C52.5 58.8995 50.1495 61.25 47.25 61.25 44.3505 61.25 42 58.8995 42 56 42 53.1005 44.3505 50.75 47.25 50.75 50.1495 50.75 52.5 53.1005 52.5 56Z" stroke="#FFDB6E" stroke-width="1.75" fill="#FFDB6E" transform="matrix(1 0 0 1.00595 1561 669)"/><path d="M24.5 129.5 24.5 42 143.5 42 143.5 129.5ZM154 140 154 31.5 14 31.5 14 140Z" stroke="#FFDB6E" stroke-width="1.75" fill="#FFDB6E" transform="matrix(1 0 0 1.00595 1561 669)"/></g></g></g><g clip-path="url(#clip7)"><g clip-path="url(#clip8)"><g clip-path="url(#clip9)"><path d="M1938.31 753.483 1914.21 715.071C1913.78 714.367 1913.01 713.94 1912.19 713.944 1911.36 713.944 1910.59 714.37 1910.15 715.071L1903.1 726.373 1918.21 750.808C1919.49 752.741 1919.76 755.169 1918.95 757.339L1936.02 757.339C1937.42 757.409 1938.61 756.332 1938.68 754.933 1938.71 754.424 1938.58 753.919 1938.31 753.483Z" stroke="#FFDB6E" stroke-width="1.76042" fill="#FFDB6E"/><path d="M1912.08 753.712 1873.79 691.411C1873.3 690.776 1872.54 690.416 1871.73 690.443L1871.42 690.443 1871.1 690.443C1870.3 690.416 1869.53 690.776 1869.04 691.411L1830.75 753.712C1830.21 754.471 1830.13 755.469 1830.56 756.3 1830.98 757.053 1831.83 757.466 1832.69 757.339L1910.15 757.339C1911 757.466 1911.85 757.053 1912.28 756.3 1912.7 755.469 1912.62 754.471 1912.08 753.712ZM1877.82 720.599 1871.73 726.021 1865.64 720.599 1855.57 726.69 1871.42 701.005 1886.84 726.021Z" stroke="#FFDB6E" stroke-width="1.76042" fill="#FFDB6E"/><path d="M1853.81 694.333C1853.81 697.25 1851.45 699.615 1848.53 699.615 1845.61 699.615 1843.25 697.25 1843.25 694.333 1843.25 691.417 1845.61 689.052 1848.53 689.052 1851.45 689.052 1853.81 691.417 1853.81 694.333Z" stroke="#FFDB6E" stroke-width="1.76042" fill="#FFDB6E"/><path d="M1825.65 768.271 1825.65 680.25 1945.35 680.25 1945.35 768.271ZM1955.92 778.833 1955.92 669.688 1815.08 669.688 1815.08 778.833Z" stroke="#FFDB6E" stroke-width="1.76042" fill="#FFDB6E"/></g></g></g><g clip-path="url(#clip10)"><g clip-path="url(#clip11)"><g clip-path="url(#clip12)"><path d="M1850.31 871.483 1826.21 833.071C1825.78 832.367 1825.01 831.94 1824.19 831.944 1823.36 831.944 1822.59 832.369 1822.15 833.071L1815.1 844.373 1830.21 868.807C1831.49 870.74 1831.76 873.169 1830.95 875.339L1848.02 875.339C1849.42 875.409 1850.61 874.331 1850.68 872.933 1850.71 872.424 1850.58 871.918 1850.31 871.483Z" stroke="#FFDB6E" stroke-width="1.76042" fill="#FFDB6E"/><path d="M1824.08 871.712 1785.79 809.411C1785.3 808.776 1784.54 808.416 1783.73 808.443L1783.42 808.443 1783.1 808.443C1782.3 808.416 1781.53 808.776 1781.04 809.411L1742.75 871.712C1742.21 872.471 1742.13 873.469 1742.56 874.3 1742.98 875.053 1743.83 875.466 1744.69 875.339L1822.15 875.339C1823 875.466 1823.85 875.053 1824.28 874.3 1824.7 873.469 1824.62 872.471 1824.08 871.712ZM1789.82 838.599 1783.73 844.021 1777.64 838.599 1767.57 844.69 1783.42 819.005 1798.84 844.021Z" stroke="#FFDB6E" stroke-width="1.76042" fill="#FFDB6E"/><path d="M1765.81 812.333C1765.81 815.25 1763.45 817.615 1760.53 817.615 1757.61 817.615 1755.25 815.25 1755.25 812.333 1755.25 809.417 1757.61 807.052 1760.53 807.052 1763.45 807.052 1765.81 809.417 1765.81 812.333Z" stroke="#FFDB6E" stroke-width="1.76042" fill="#FFDB6E"/><path d="M1737.65 886.271 1737.65 798.25 1857.35 798.25 1857.35 886.271ZM1867.92 896.833 1867.92 787.687 1727.08 787.687 1727.08 896.833Z" stroke="#FFDB6E" stroke-width="1.76042" fill="#FFDB6E"/></g></g></g></g></svg>