<svg width="1092" height="1035" xmlns="http://www.w3.org/2000/svg" xmlns:xlink="http://www.w3.org/1999/xlink" xml:space="preserve" overflow="hidden"><defs><clipPath id="clip0"><rect x="1486" y="613" width="1092" height="1035"/></clipPath><clipPath id="clip1"><rect x="1686" y="931" width="664" height="717"/></clipPath><clipPath id="clip2"><rect x="1686" y="931" width="664" height="717"/></clipPath><clipPath id="clip3"><rect x="1686" y="931" width="664" height="717"/></clipPath><clipPath id="clip4"><rect x="1553" y="666" width="152" height="165"/></clipPath><clipPath id="clip5"><rect x="1553" y="666" width="152" height="165"/></clipPath><clipPath id="clip6"><rect x="1553" y="666" width="152" height="165"/></clipPath><clipPath id="clip7"><rect x="1768" y="636" width="153" height="165"/></clipPath><clipPath id="clip8"><rect x="1768" y="636" width="153" height="165"/></clipPath><clipPath id="clip9"><rect x="1768" y="636" width="153" height="165"/></clipPath><clipPath id="clip10"><rect x="1689" y="752" width="154" height="165"/></clipPath><clipPath id="clip11"><rect x="1689" y="752" width="154" height="165"/></clipPath><clipPath id="clip12"><rect x="1689" y="752" width="154" height="165"/></clipPath></defs><g clip-path="url(#clip0)" transform="translate(-1486 -613)"><g clip-path="url(#clip1)"><g clip-path="url(#clip2)"><g clip-path="url(#clip3)"><path d="M366.03 55.4163C309.828 53.2772 255.237 74.4406 215.164 113.904 174.728 152.875 151.97 206.675 152.167 262.833L152.167 263.663 99.4891 375.547C92.9801 389.371 98.91 405.855 112.734 412.364 116.415 414.097 120.432 414.997 124.5 415L152.167 415 152.167 470.333C152.197 500.88 176.953 525.636 207.5 525.667L235.167 525.667 235.167 581C235.164 596.28 247.549 608.669 262.829 608.671 278.109 608.673 290.497 596.288 290.5 581.008 290.5 581.006 290.5 581.002 290.5 581L290.5 525.667C305.78 525.667 318.167 513.28 318.167 498 318.167 482.72 305.78 470.333 290.5 470.333L207.5 470.333 207.5 387.333C207.5 372.053 195.113 359.667 179.833 359.667L168.103 359.667 205.176 280.983C207.082 276.971 207.984 272.556 207.804 268.118L207.5 262.833C207.359 221.654 224.049 182.206 253.703 153.633 283.314 125.022 323.212 109.561 364.37 110.75 448.294 115.989 513.254 186.311 511.833 270.386L457.413 477.997C456.142 482.847 456.199 487.95 457.579 492.771L485.246 588.664C489.489 603.338 504.814 611.806 519.497 607.588 534.179 603.357 542.653 588.026 538.423 573.343 538.422 573.34 538.421 573.339 538.421 573.336L512.857 484.803 566.254 283.749C566.862 281.453 567.167 279.046 567.167 276.667L567.167 270.359C568.393 156.45 479.769 61.7433 366.03 55.4163Z" fill="#FFDB6E" transform="matrix(1 0 0 1.07831 1686 932)"/></g></g></g><path d="M2136.92 723.606C2131.33 685.421 2160.15 650.256 2201.29 645.062 2217.97 642.957 2234.92 646.103 2249.44 653.997 2264.82 627.086 2300.77 616.858 2329.73 631.153 2334.8 633.653 2339.44 636.821 2343.53 640.559 2355.51 618.251 2384.7 609.188 2408.72 620.316 2415.36 623.396 2421.16 627.85 2425.67 633.336 2444.98 612.241 2479.1 609.635 2501.89 627.516 2511.46 635.031 2517.92 645.397 2520.14 656.836 2551.79 664.849 2570.45 695.199 2561.84 724.625 2561.11 727.099 2560.2 729.523 2559.12 731.88 2584.49 762.541 2578.28 806.489 2545.24 830.039 2534.96 837.37 2522.81 842.116 2509.97 843.82 2509.68 876.807 2480.62 903.334 2445.04 903.069 2433.16 902.981 2421.53 899.845 2411.45 894.008 2399.42 930.991 2357.45 951.895 2317.71 940.697 2301.06 936.004 2286.67 926.08 2277 912.617 2236.31 935.394 2183.5 923.142 2159.04 885.251 2158.73 884.773 2158.43 884.293 2158.13 883.809 2131.51 886.702 2107.39 869.067 2104.26 844.421 2102.59 831.284 2107.27 818.134 2117.03 808.477 2093.98 795.88 2086.23 768.229 2099.73 746.717 2107.52 734.307 2121.19 726.102 2136.52 724.627Z" stroke="#FFDB6E" stroke-width="4.58333" stroke-miterlimit="8" fill="none" fill-rule="evenodd"/><path d="M2158.71 1008.53C2158.71 1013.57 2154.64 1017.64 2149.6 1017.64 2144.57 1017.64 2140.49 1013.57 2140.49 1008.53 2140.49 1003.5 2144.57 999.422 2149.6 999.422 2154.64 999.422 2158.71 1003.5 2158.71 1008.53Z" stroke="#FFDB6E" stroke-width="4.58333" stroke-miterlimit="8" fill="none" fill-rule="evenodd"/><path d="M2187.04 984.563C2187.04 994.627 2178.88 1002.79 2168.82 1002.79 2158.75 1002.79 2150.6 994.627 2150.6 984.563 2150.6 974.499 2158.75 966.341 2168.82 966.341 2178.88 966.341 2187.04 974.499 2187.04 984.563Z" stroke="#FFDB6E" stroke-width="4.58333" stroke-miterlimit="8" fill="none" fill-rule="evenodd"/><path d="M2226.76 946.374C2226.76 961.47 2214.53 973.708 2199.43 973.708 2184.33 973.708 2172.1 961.47 2172.1 946.374 2172.1 931.278 2184.33 919.041 2199.43 919.041 2214.53 919.041 2226.76 931.278 2226.76 946.374Z" stroke="#FFDB6E" stroke-width="4.58333" stroke-miterlimit="8" fill="none" fill-rule="evenodd"/><path d="M2145.75 813.251C2135.91 813.967 2126.07 811.855 2117.55 807.2M2170.64 879.474C2166.68 880.937 2162.53 881.91 2158.3 882.37M2276.97 911.295C2273.99 907.15 2271.5 902.721 2269.53 898.083M2414.47 878.35C2414.03 883.266 2413.03 888.125 2411.5 892.847M2473.5 788.78C2495.82 798.862 2509.9 819.939 2509.7 842.958M2558.89 731.077C2555.28 738.915 2549.76 745.869 2542.77 751.392M2520.21 655.698C2520.83 658.863 2521.11 662.076 2521.06 665.292M2417.26 644.506C2419.36 640.08 2422.14 635.958 2425.52 632.27M2340.02 650.337C2340.88 646.679 2342.22 643.135 2344.02 639.785M2249.38 653.921C2254.63 656.777 2259.49 660.215 2263.85 664.159M2139.45 734.38C2138.3 730.857 2137.46 727.255 2136.93 723.608" stroke="#FFDB6E" stroke-width="4.58333" stroke-miterlimit="8" fill="none" fill-rule="evenodd"/><path d="M2236 712 2464.93 712" stroke="#FFDB6E" stroke-width="13.75" stroke-miterlimit="8" fill="none" fill-rule="evenodd"/><path d="M2236 771 2464.93 771" stroke="#FFDB6E" stroke-width="13.75" stroke-miterlimit="8" fill="none" fill-rule="evenodd"/><path d="M2236 831 2369.41 831" stroke="#FFDB6E" stroke-width="13.75" stroke-miterlimit="8" fill="none" fill-rule="evenodd"/><path d="M1532.92 744.606C1527.33 706.421 1556.15 671.256 1597.29 666.062 1613.97 663.957 1630.92 667.103 1645.44 674.997 1660.82 648.086 1696.77 637.858 1725.73 652.153 1730.8 654.653 1735.44 657.821 1739.53 661.559 1751.51 639.251 1780.7 630.188 1804.72 641.316 1811.36 644.396 1817.16 648.85 1821.67 654.336 1840.98 633.241 1875.1 630.635 1897.89 648.516 1907.46 656.031 1913.92 666.397 1916.14 677.836 1947.79 685.849 1966.45 716.199 1957.84 745.625 1957.11 748.099 1956.2 750.523 1955.12 752.88 1980.49 783.541 1974.28 827.489 1941.24 851.039 1930.96 858.37 1918.81 863.116 1905.97 864.82 1905.68 897.807 1876.62 924.334 1841.04 924.069 1829.16 923.981 1817.53 920.845 1807.45 915.008 1795.42 951.991 1753.45 972.895 1713.71 961.697 1697.06 957.004 1682.67 947.08 1673 933.617 1632.31 956.394 1579.5 944.142 1555.04 906.251 1554.73 905.773 1554.43 905.293 1554.13 904.809 1527.51 907.702 1503.39 890.067 1500.26 865.421 1498.59 852.284 1503.27 839.134 1513.03 829.477 1489.98 816.88 1482.23 789.229 1495.73 767.717 1503.52 755.307 1517.19 747.102 1532.52 745.627Z" stroke="#FFDB6E" stroke-width="4.58333" stroke-miterlimit="8" fill="none" fill-rule="evenodd"/><path d="M1935.32 1014.32C1935.32 1019.35 1931.24 1023.43 1926.2 1023.43 1921.17 1023.43 1917.09 1019.35 1917.09 1014.32 1917.09 1009.29 1921.17 1005.21 1926.2 1005.21 1931.24 1005.21 1935.32 1009.29 1935.32 1014.32Z" stroke="#FFDB6E" stroke-width="4.58333" stroke-miterlimit="8" fill="none" fill-rule="evenodd"/><path d="M1925.5 993.601C1925.5 1003.66 1917.34 1011.82 1907.28 1011.82 1897.22 1011.82 1889.06 1003.66 1889.06 993.601 1889.06 983.537 1897.22 975.379 1907.28 975.379 1917.34 975.379 1925.5 983.537 1925.5 993.601Z" stroke="#FFDB6E" stroke-width="4.58333" stroke-miterlimit="8" fill="none" fill-rule="evenodd"/><path d="M1903.4 959.427C1903.4 974.523 1891.16 986.76 1876.07 986.76 1860.97 986.76 1848.73 974.523 1848.73 959.427 1848.73 944.331 1860.97 932.094 1876.07 932.094 1891.16 932.094 1903.4 944.331 1903.4 959.427Z" stroke="#FFDB6E" stroke-width="4.58333" stroke-miterlimit="8" fill="none" fill-rule="evenodd"/><path d="M1541.75 834.251C1531.91 834.967 1522.07 832.855 1513.55 828.2M1566.64 900.474C1562.68 901.937 1558.53 902.91 1554.3 903.37M1672.97 932.295C1669.99 928.15 1667.5 923.721 1665.53 919.083M1810.47 899.35C1810.03 904.266 1809.03 909.125 1807.5 913.847M1869.5 809.78C1891.82 819.862 1905.9 840.939 1905.7 863.958M1954.89 752.077C1951.28 759.915 1945.76 766.869 1938.77 772.392M1916.21 676.698C1916.83 679.863 1917.11 683.076 1917.06 686.292M1813.26 665.506C1815.36 661.08 1818.14 656.958 1821.52 653.27M1736.02 671.337C1736.88 667.679 1738.22 664.135 1740.02 660.785M1645.38 674.921C1650.63 677.777 1655.49 681.215 1659.85 685.159M1535.45 755.38C1534.3 751.857 1533.46 748.255 1532.93 744.608" stroke="#FFDB6E" stroke-width="4.58333" stroke-miterlimit="8" fill="none" fill-rule="evenodd"/><g clip-path="url(#clip4)"><g clip-path="url(#clip5)"><g clip-path="url(#clip6)"><path d="M123.5 103.867 101.824 69.3183C101.436 68.6851 100.746 68.3009 100.003 68.305 99.2575 68.3047 98.5639 68.6873 98.1666 69.3183L91.8333 79.4833 105.418 101.46C106.568 103.198 106.815 105.383 106.083 107.334L121.442 107.334C122.699 107.397 123.77 106.428 123.832 105.171 123.855 104.712 123.74 104.258 123.5 103.867Z" stroke="#FFDB6E" stroke-width="1.58333" fill="#FFDB6E" transform="matrix(1 0 0 1.07895 1553 667)"/><path d="M99.9083 104.072 65.4708 48.0383C65.0289 47.4675 64.3398 47.1436 63.6183 47.1675L63.3333 47.1675 63.0483 47.1675C62.3268 47.1436 61.6377 47.4675 61.1958 48.0383L26.7583 104.072C26.2705 104.755 26.2034 105.652 26.5842 106.4 26.9683 107.077 27.7297 107.449 28.5 107.334L98.1666 107.334C98.9369 107.449 99.6983 107.077 100.082 106.4 100.463 105.652 100.396 104.755 99.9083 104.072ZM69.0966 74.29 63.6183 79.1666 58.14 74.29 49.0833 79.7683 63.3333 56.6675 77.2033 79.1666Z" stroke="#FFDB6E" stroke-width="1.58333" fill="#FFDB6E" transform="matrix(1 0 0 1.07895 1553 667)"/><path d="M47.5 50.6666C47.5 53.29 45.3733 55.4166 42.75 55.4166 40.1266 55.4166 38 53.29 38 50.6666 38 48.0433 40.1266 45.9166 42.75 45.9166 45.3733 45.9166 47.5 48.0433 47.5 50.6666Z" stroke="#FFDB6E" stroke-width="1.58333" fill="#FFDB6E" transform="matrix(1 0 0 1.07895 1553 667)"/><path d="M22.1667 117.167 22.1667 38 129.833 38 129.833 117.167ZM139.333 126.667 139.333 28.5 12.6667 28.5 12.6667 126.667Z" stroke="#FFDB6E" stroke-width="1.58333" fill="#FFDB6E" transform="matrix(1 0 0 1.07895 1553 667)"/></g></g></g><g clip-path="url(#clip7)"><g clip-path="url(#clip8)"><g clip-path="url(#clip9)"><path d="M123.5 103.867 101.824 69.3183C101.436 68.6851 100.746 68.3009 100.003 68.305 99.2575 68.3047 98.5639 68.6873 98.1666 69.3183L91.8333 79.4833 105.418 101.46C106.568 103.198 106.815 105.383 106.083 107.334L121.442 107.334C122.699 107.397 123.77 106.428 123.832 105.171 123.855 104.712 123.74 104.258 123.5 103.867Z" stroke="#FFDB6E" stroke-width="1.58333" fill="#FFDB6E" transform="matrix(1 0 0 1.07895 1769 637)"/><path d="M99.9083 104.072 65.4708 48.0383C65.0289 47.4675 64.3398 47.1436 63.6183 47.1675L63.3333 47.1675 63.0483 47.1675C62.3268 47.1436 61.6377 47.4675 61.1958 48.0383L26.7583 104.072C26.2705 104.755 26.2034 105.652 26.5842 106.4 26.9683 107.077 27.7297 107.449 28.5 107.334L98.1666 107.334C98.9369 107.449 99.6983 107.077 100.082 106.4 100.463 105.652 100.396 104.755 99.9083 104.072ZM69.0966 74.29 63.6183 79.1666 58.14 74.29 49.0833 79.7683 63.3333 56.6675 77.2033 79.1666Z" stroke="#FFDB6E" stroke-width="1.58333" fill="#FFDB6E" transform="matrix(1 0 0 1.07895 1769 637)"/><path d="M47.5 50.6666C47.5 53.29 45.3733 55.4166 42.75 55.4166 40.1266 55.4166 38 53.29 38 50.6666 38 48.0433 40.1266 45.9166 42.75 45.9166 45.3733 45.9166 47.5 48.0433 47.5 50.6666Z" stroke="#FFDB6E" stroke-width="1.58333" fill="#FFDB6E" transform="matrix(1 0 0 1.07895 1769 637)"/><path d="M22.1667 117.167 22.1667 38 129.833 38 129.833 117.167ZM139.333 126.667 139.333 28.5 12.6667 28.5 12.6667 126.667Z" stroke="#FFDB6E" stroke-width="1.58333" fill="#FFDB6E" transform="matrix(1 0 0 1.07895 1769 637)"/></g></g></g><g clip-path="url(#clip10)"><g clip-path="url(#clip11)"><g clip-path="url(#clip12)"><path d="M123.5 103.867 101.824 69.3185C101.436 68.6853 100.746 68.301 100.004 68.3051 99.2578 68.3048 98.5641 68.6875 98.1669 69.3185L91.8335 79.4835 105.419 101.46C106.568 103.199 106.815 105.383 106.084 107.334L121.442 107.334C122.7 107.397 123.77 106.429 123.833 105.171 123.856 104.713 123.74 104.258 123.5 103.867Z" stroke="#FFDB6E" stroke-width="1.58334" fill="#FFDB6E" transform="matrix(1 0 0 1.07895 1690 752)"/><path d="M99.9085 104.073 65.471 48.0384C65.0291 47.4676 64.34 47.1437 63.6185 47.1676L63.3335 47.1676 63.0485 47.1676C62.3269 47.1437 61.6379 47.4676 61.196 48.0384L26.7584 104.073C26.2706 104.755 26.2034 105.653 26.5842 106.4 26.9683 107.078 27.7298 107.449 28.5001 107.334L98.1669 107.334C98.9371 107.449 99.6986 107.078 100.083 106.4 100.463 105.653 100.396 104.755 99.9085 104.073ZM69.0968 74.2901 63.6185 79.1668 58.1401 74.2901 49.0834 79.7685 63.3335 56.6676 77.2035 79.1668Z" stroke="#FFDB6E" stroke-width="1.58334" fill="#FFDB6E" transform="matrix(1 0 0 1.07895 1690 752)"/><path d="M47.5001 50.6668C47.5001 53.2901 45.3734 55.4168 42.7501 55.4168 40.1267 55.4168 38.0001 53.2901 38.0001 50.6668 38.0001 48.0434 40.1267 45.9168 42.7501 45.9168 45.3734 45.9168 47.5001 48.0434 47.5001 50.6668Z" stroke="#FFDB6E" stroke-width="1.58334" fill="#FFDB6E" transform="matrix(1 0 0 1.07895 1690 752)"/><path d="M22.1667 117.167 22.1667 38.0001 129.834 38.0001 129.834 117.167ZM139.334 126.667 139.334 28.5001 12.6667 28.5001 12.6667 126.667Z" stroke="#FFDB6E" stroke-width="1.58334" fill="#FFDB6E" transform="matrix(1 0 0 1.07895 1690 752)"/></g></g></g></g></svg>