<svg width="887" height="440" xmlns="http://www.w3.org/2000/svg" xmlns:xlink="http://www.w3.org/1999/xlink" xml:space="preserve" overflow="hidden"><defs><clipPath id="clip0"><rect x="1813" y="766" width="887" height="440"/></clipPath><clipPath id="clip1"><rect x="1812" y="765" width="267" height="441"/></clipPath><clipPath id="clip2"><rect x="1812" y="765" width="267" height="441"/></clipPath><clipPath id="clip3"><rect x="1638" y="765" width="441" height="441"/></clipPath><clipPath id="clip4"><rect x="2022" y="765" width="441" height="441"/></clipPath><clipPath id="clip5"><rect x="2022" y="765" width="441" height="441"/></clipPath><clipPath id="clip6"><rect x="2022" y="765" width="441" height="441"/></clipPath><clipPath id="clip7"><rect x="2406" y="765" width="295" height="441"/></clipPath><clipPath id="clip8"><rect x="2406" y="765" width="295" height="441"/></clipPath><clipPath id="clip9"><rect x="2406" y="765" width="441" height="441"/></clipPath></defs><g clip-path="url(#clip0)" transform="translate(-1813 -766)"><g clip-path="url(#clip1)"><g clip-path="url(#clip2)"><g clip-path="url(#clip3)"><path d="M232.941 361.939C227.211 361.943 222.163 358.17 220.544 352.673L184.981 232.527 142.172 232.527C136.192 232.526 130.992 228.428 129.593 222.614L104.332 117.739 77.2071 222.821C75.724 228.529 70.5769 232.517 64.68 232.527L12.9412 232.527 12.9412 207.861 54.6118 207.861 92.1929 62.2729C93.6679 56.5603 98.82 52.5685 104.72 52.5671L104.824 52.5671C110.764 52.616 115.909 56.7038 117.299 62.48L152.292 207.861 194.609 207.861C200.355 207.861 205.402 211.64 207.007 217.127L233.019 303.729 259.419 217.075C261.057 211.599 266.1 207.851 271.816 207.861L289.598 207.861 324.461 137.047C326.63 132.659 331.084 129.866 335.979 129.826L336.082 129.826C340.948 129.826 345.374 132.518 347.574 136.84L384.068 207.861 426.256 207.861 426.256 232.527 376.148 232.527C371.301 232.546 366.855 229.833 364.656 225.513L336.315 170.358 309.216 225.306C307.058 229.727 302.567 232.531 297.647 232.527L281.445 232.527 245.313 352.725C243.692 358.202 238.654 361.955 232.941 361.939Z" fill="#FFDB6E" transform="matrix(1.00147 0 0 1 1638.35 766)"/></g></g></g><g clip-path="url(#clip4)"><g clip-path="url(#clip5)"><g clip-path="url(#clip6)"><path d="M2441.69 1007.38C2441.64 1006.65 2441.68 1005.91 2441.68 1005.16L2441.65 1005.16C2441.65 1000.01 2441.96 994.824 2441.58 989.695 2440.91 980.895 2440.69 971.923 2438.7 963.398 2435.61 950.095 2429.7 938.054 2421.51 926.734 2411.99 913.582 2400.51 903.153 2387.16 894.387 2385.31 893.167 2383.52 891.878 2381.68 890.647 2371.89 884.061 2362.42 877.117 2353.3 869.582 2343.93 861.848 2333.57 855.351 2322.27 850.614 2316.11 848.036 2309.79 846.238 2303 846.386 2297.47 846.489 2291.93 846.145 2286.41 846.489 2280.97 846.86 2276.6 845.602 2272.29 841.883 2264.82 835.437 2255.92 832.062 2245.79 832.825L2229.28 834.062C2220.11 834.75 2211.01 835.943 2201.9 837.259 2194.44 838.325 2187.49 840.167 2181.28 844.426 2177.53 846.994 2174.22 848.49 2169.13 846.592 2161.47 843.739 2153.21 844.959 2145.09 845.671 2119.94 847.881 2100.4 859.393 2086.32 880.238 2084.27 883.281 2082.73 886.684 2080.7 889.743 2079.27 891.852 2077.62 893.797 2075.76 895.542 2071.2 899.832 2066.33 903.792 2061.9 908.209 2059.59 910.492 2057.77 913.331 2056.04 916.115 2047.86 929.343 2045.81 944.324 2044.13 959.335 2043.84 961.776 2044.69 964.402 2045.34 966.863 2048.69 979.72 2057.9 989.19 2064.66 1000.08 2065.21 1000.95 2066.36 1001.48 2067.3 1002.04 2071.31 1004.33 2072.64 1007.81 2072.26 1012.28 2071.73 1018.28 2074.53 1022.87 2078.65 1026.93 2082.37 1030.58 2086.28 1033.97 2091.05 1036.09 2098.1 1039.24 2105.11 1042.64 2112.44 1044.95 2122.09 1047.99 2130.73 1052.63 2138.72 1058.68 2141.07 1060.46 2143.38 1062.29 2145.8 1063.98 2152.76 1068.82 2159.6 1073.88 2167.53 1077.1 2179.94 1082.14 2192.45 1082.95 2205.1 1077.89 2210.18 1075.86 2210.63 1076.1 2212.18 1080.88 2212.97 1083.34 2213.61 1085.84 2214.53 1088.25 2216.78 1094.21 2220.03 1099.58 2225.15 1103.47 2233.07 1109.51 2240.94 1115.6 2249.19 1121.14 2265.54 1132.1 2283.95 1137.05 2303.4 1137.81 2314.4 1138.26 2325.52 1138.8 2336.47 1136.54 2338.98 1136.02 2341.63 1135.94 2344.19 1136.09 2352.05 1136.59 2359.53 1134.72 2367.07 1133 2374.78 1131.24 2381.58 1127.74 2387.75 1122.89 2393.25 1118.56 2398.86 1114.36 2404.17 1109.79 2409.74 1105 2415.02 1099.85 2420.38 1094.8 2421.16 1094.07 2421.78 1093.06 2422.22 1092.07 2424.8 1086.39 2427.47 1080.73 2429.77 1074.92 2431.39 1070.86 2433.02 1066.69 2431.39 1062.1 2431.08 1061.25 2431.76 1059.97 2432.17 1058.99 2439.23 1042.5 2442.97 1025.4 2441.67 1007.38ZM2403.38 1030.58C2398.47 1029.47 2393.05 1029.88 2387.96 1030.46 2378.93 1031.47 2372.3 1036.34 2368.2 1044.59 2366.64 1047.73 2366.5 1050.94 2367.25 1054.28 2367.81 1056.8 2370.1 1058.92 2372.64 1059.16 2375.42 1059.44 2377.74 1058.57 2379.22 1056.05 2379.41 1055.73 2379.69 1055.43 2379.76 1055.08 2381.27 1048.15 2386.33 1046.89 2392.32 1047.19 2397.84 1047.48 2403.37 1047.78 2408.89 1048.17 2410.36 1048.28 2411.26 1050.09 2410.62 1051.45 2407.38 1058.48 2403.81 1065.36 2400.95 1072.54 2396.09 1084.67 2387.86 1093.84 2376.92 1100.59 2370.98 1104.25 2364.6 1107.21 2358.35 1110.33 2356.69 1111.12 2354.91 1111.63 2353.08 1111.81 2343.93 1112.81 2334.75 1113.68 2325.6 1114.58 2316.58 1115.33 2307.96 1112.95 2299.36 1111.06 2292.54 1109.55 2285.89 1107.26 2279.17 1105.33 2274.88 1104.09 2271.05 1102.31 2267.96 1098.71 2265.88 1096.26 2262.91 1094.5 2260.15 1092.7 2256.75 1090.5 2253.16 1088.6 2249.68 1086.51 2248.23 1085.63 2248.27 1083.79 2249.68 1083.15 2254.39 1081.01 2259.18 1078.95 2264.42 1078.76 2270.69 1078.53 2276.95 1078.54 2283.23 1078.54 2287.44 1078.53 2290.99 1080.63 2294.67 1082.32 2303.21 1086.22 2312.16 1088.19 2321.52 1087.29 2331.17 1086.36 2339.12 1081.97 2345 1074.28 2346.53 1072.31 2347.31 1069.71 2348.16 1067.3 2349.2 1064.33 2346.4 1061.37 2343.15 1062.08 2340.64 1062.62 2338.18 1063.47 2335.81 1064.44 2333.43 1065.42 2331.14 1066.63 2328.87 1067.86 2323.48 1070.82 2317.95 1071.22 2311.83 1070.28 2301.02 1068.63 2301.23 1065.49 2303.43 1055.71 2304.03 1053.02 2306.35 1050.66 2308.05 1048.29 2309.34 1046.5 2311 1044.99 2312.3 1043.21 2313.43 1041.67 2313.83 1039.86 2312.79 1038.05 2311.8 1036.35 2309.02 1035.16 2307.06 1035.51 2302.88 1036.23 2299.51 1038.26 2296.92 1041.66 2293.06 1046.74 2290.51 1052.33 2289.55 1058.7 2289.01 1062.15 2288.43 1062.49 2285.37 1062.55 2278.37 1062.7 2271.36 1062.82 2264.36 1062.93 2258.71 1063.03 2253.53 1064.81 2248.42 1067.01 2244.17 1068.87 2241.51 1072.45 2238.48 1075.64 2237.41 1076.79 2235.88 1077.08 2234.54 1075.97 2232.84 1074.57 2231.25 1073.03 2229.61 1071.55 2223.28 1065.83 2221.14 1058.98 2223.45 1050.6 2224.76 1045.85 2223.3 1042.5 2220.28 1041.18 2216.11 1039.34 2211.63 1041.04 2209 1045.39 2206.83 1049 2206.43 1053.09 2206.18 1057.08 2206.06 1059.29 2206.55 1061.49 2204.97 1063.34 2202.97 1065.67 2200.37 1067.2 2197.38 1067.5 2191.11 1068.12 2184.9 1068.14 2178.94 1065.41 2174.54 1063.38 2170.3 1061.12 2167.07 1057.48 2163.66 1053.63 2160.54 1049.52 2157.41 1045.43 2155.2 1042.54 2153.67 1039.19 2149.95 1037.55 2148.04 1036.7 2146.53 1034.77 2145.09 1033.11 2142.22 1029.84 2142.51 1024.8 2145.92 1022.33 2149.48 1019.71 2153.22 1017.34 2157.11 1015.23 2164.93 1011.03 2172.88 1012.91 2180.7 1015.41 2182.45 1015.96 2184.01 1017.03 2185.71 1017.74 2196.4 1022.28 2207.16 1022.5 2217.89 1017.9 2221.61 1016.31 2225.14 1014.29 2228.83 1012.58 2239.21 1007.78 2244.87 998.842 2249.58 989.059 2250.06 988.076 2250.23 986.949 2250.58 985.907 2251.39 983.57 2250.84 981.521 2249.19 979.809 2247.91 978.492 2244.97 978.434 2243.03 979.94 2238.93 983.074 2234.93 986.341 2231.05 989.736 2225.79 994.391 2219.88 998.24 2213.5 1001.16 2211.84 1001.92 2210.14 1002.93 2208.37 1003.14 2197.12 1004.48 2194.65 1004.02 2197.55 991.902 2197.97 990.125 2198.58 988.361 2199.37 986.705 2200.69 983.961 2202.63 981.961 2205.85 981.218 2208.34 980.617 2210.74 979.671 2212.97 978.406 2216.17 976.626 2216.27 972.556 2213.34 970.088 2212.51 969.386 2211.62 968.654 2210.62 968.273 2203.83 965.643 2194.94 967.805 2190.49 973.412 2186.06 978.98 2182.93 985.11 2182.61 992.49 2182.45 996.192 2181.51 996.694 2177.69 996.677 2174.75 996.677 2171.8 996.642 2168.84 996.574 2161.26 996.426 2154.25 998.567 2147.77 1002.34 2144.28 1004.37 2141.07 1006.88 2137.65 1009.06 2132.09 1012.61 2128.39 1017.27 2127.64 1024.11 2127.3 1027.19 2125.74 1028.21 2123.24 1027.69 2114.87 1025.96 2106.88 1023.35 2100.38 1017.39 2097.43 1014.7 2096.08 1011.68 2096.86 1007.57 2098.75 997.498 2098.42 986.945 2103.41 977.547 2106.7 971.38 2109.67 965.014 2113.44 959.156 2115.36 956.166 2118.61 953.966 2121.46 951.663 2122.53 950.838 2124.23 950.281 2125.56 950.401 2132.5 951.061 2139.44 951.879 2146.33 952.876 2148.08 953.151 2149.64 954.526 2151.4 955.018 2156.34 956.393 2161.28 958.032 2166.33 958.713 2178.02 960.274 2188.06 956.169 2196.83 948.631 2201.61 944.523 2206.01 940.02 2209.14 934.503 2213.11 927.466 2218.75 922.478 2226.35 919.701 2227.37 919.323 2228.42 918.91 2229.33 918.309 2230.98 917.226 2231.88 915.593 2231.69 913.634 2231.48 911.64 2230.07 910.471 2228.33 909.588 2225.53 908.195 2222.61 908.144 2219.7 908.842 2215 909.959 2210.5 911.643 2206.68 914.679 2202.08 918.36 2197.56 922.132 2193.11 925.995 2190.87 927.913 2188.82 930.034 2186.68 932.079 2178.69 939.724 2169.34 941.134 2159.03 938.033 2155.15 936.857 2151.21 935.854 2147.46 934.345 2144.39 933.083 2141.14 932.324 2137.84 932.096 2136.06 931.973 2133.73 931.942 2133.46 929.701 2133.34 928.704 2134.78 927.274 2135.82 926.414 2142.15 921.114 2149.11 917.243 2157.6 916.494 2160.5 916.232 2163.43 915.387 2166.12 914.259 2168.43 913.286 2170.6 911.75 2172.5 910.065 2174.73 908.106 2174.11 904.084 2171.56 902.355 2168.4 900.207 2164.95 899.158 2161.09 899.88 2157.12 900.63 2153.1 901.235 2149.16 902.183 2136.43 905.25 2126.57 912.681 2118.58 922.801 2116.04 926.01 2114.56 929.925 2114.34 934.008 2114.22 936.063 2112.97 937.789 2111.19 938.143 2105.63 939.243 2103.29 944.537 2098.93 947.156 2097.81 947.823 2097.23 949.476 2096.53 950.748 2092.99 957.218 2089.53 963.68 2087.3 970.789 2085.89 975.275 2082.33 976.021 2078.74 972.762 2076.02 970.304 2073.62 967.482 2071.12 964.787 2070.65 964.223 2070.24 963.603 2069.91 962.941 2066.74 957.211 2067.03 939.439 2070.52 933.911 2073.67 928.934 2077.03 924.091 2080.23 919.151 2081.82 916.649 2084.11 914.666 2086.82 913.445 2087.81 912.98 2088.83 912.489 2089.9 912.241 2098.9 910.069 2099.55 902.341 2101.26 895.301 2099.57 885.281 2105.29 879.341 2112.95 874.687 2117.37 872.043 2121.94 869.641 2126.63 867.492 2131.68 865.165 2137.01 863.745 2142.65 863.697 2146.7 863.663 2150.75 863.587 2154.81 863.491 2160.8 863.34 2166.64 863.965 2171.97 866.918 2174.78 868.465 2177.51 868.602 2180.45 867.571 2186.35 865.522 2192.4 863.797 2198.18 861.428 2206.51 857.998 2215.09 856.375 2224.06 856.736 2229.59 856.942 2235.12 857.114 2240.65 857.32 2241.75 857.379 2242.88 857.341 2243.95 857.571 2249.12 858.723 2253.46 861.37 2257.14 865.134 2257.11 869.878 2256.94 874.656 2254.87 879.028 2253.46 882.019 2251.44 884.735 2250.12 887.753 2248.44 891.62 2249.35 895.944 2251.81 897.983 2254.66 900.379 2259.67 900.148 2262.9 896.821 2269.19 890.358 2273.99 883.06 2273.83 873.487 2273.8 870.919 2273.85 868.338 2274.17 865.801 2274.45 863.704 2276.89 862.033 2279.04 862.044 2279.77 862.044 2280.54 861.961 2281.25 862.102 2291.73 864.268 2301.99 867.183 2311.66 871.82 2314.18 873.03 2316.41 874.8 2318.78 876.316 2316.25 876.808 2313.69 877.141 2311.2 877.787 2308.36 878.548 2305.56 879.454 2302.81 880.503 2301.1 881.156 2299.44 882.04 2297.94 883.074 2295.26 884.93 2293.82 888.392 2294.48 890.681 2295.35 893.658 2298.35 895.374 2302.51 895.099 2304.35 894.984 2306.17 894.696 2307.96 894.239 2315.83 892.187 2323.84 891.204 2331.95 890.791 2334.82 890.64 2337.81 890.097 2340.48 889.055 2343.81 887.756 2346.09 888.615 2348.29 891.084 2349.5 892.441 2350.82 893.92 2352.41 894.652 2359.33 897.831 2364.02 903.562 2369.28 908.701 2372.15 911.537 2375.15 914.245 2378.18 916.916 2379.47 918.051 2381.7 918.704 2380.93 920.78 2380.71 921.399 2378.28 921.454 2376.87 921.365 2375.04 921.234 2373.22 920.916 2371.45 920.416 2363.97 918.408 2356.76 920.313 2349.68 922.238 2347.02 922.953 2344.66 925.194 2342.42 927.036 2340.32 928.79 2339.62 931.632 2340.62 932.915 2342.08 934.719 2343.91 933.853 2345.69 933.547 2355.7 931.88 2365.58 933.461 2375.32 935.403 2380.8 936.51 2386.23 937.294 2391.75 937.019 2395.5 936.802 2398.16 937.947 2399.76 941.429 2403.29 949.129 2407.06 956.726 2410.39 964.495 2413.03 970.672 2413.29 977.403 2413.8 984.003 2413.99 986.471 2412.56 988.11 2410.59 989.4 2405.96 992.401 2400.91 993.126 2395.77 991.393 2389.85 989.389 2384.07 986.945 2378.23 984.718 2376.87 984.188 2375.53 983.597 2374.11 983.301 2373.57 983.198 2372.68 983.68 2372.29 984.161 2371.91 984.635 2371.63 985.618 2371.87 986.1 2373.02 988.396 2374.47 990.534 2375.6 992.858 2380 1001.86 2387.47 1006.57 2397.02 1008.66 2400.33 1009.4 2403.52 1009.73 2406.84 1008.9 2408.62 1008.45 2410.43 1008.09 2412.26 1007.8 2414.26 1007.49 2415.61 1008.68 2415.7 1010.94 2415.84 1013.9 2415.93 1016.84 2415.88 1019.79 2415.7 1030.76 2417.96 1033.93 2403.38 1030.62ZM2347.58 954.478C2344.15 954.426 2341.14 955.561 2338.21 957.314 2331.88 961.116 2325.3 964.361 2318.24 966.664 2314.92 967.75 2312.26 966.87 2310.34 964.412 2307.4 960.645 2304.83 956.592 2302.2 952.581 2301.63 951.714 2301.15 950.484 2301.27 949.507 2302.22 942.357 2303.77 935.744 2312.12 933.258 2315.15 932.358 2317.91 930.192 2320.52 928.24 2322.82 926.486 2322.15 922.784 2319.53 921.983 2308.01 918.453 2298.43 923.073 2294.09 930.041 2292.54 932.533 2291.38 935.276 2290.07 937.906 2288.53 940.965 2287.98 941.398 2285.07 940.773 2271.26 937.844 2259.8 942.512 2249.74 951.656 2248.12 953.124 2246.66 954.935 2247.34 957.438 2247.73 958.916 2250.41 959.624 2253.22 958.964 2254.65 958.62 2256 957.912 2257.43 957.658 2262.5 956.809 2267.6 956.07 2272.73 955.286 2277.53 955.781 2281.94 956.97 2285.66 960.593 2290.51 965.337 2292.96 971.628 2296.93 976.911 2296.45 980.486 2295.77 984.047 2295.56 987.643 2295.37 990.565 2295.54 993.545 2295.93 996.45 2296.32 999.454 2295.33 1001.44 2292.61 1002.63 2285.77 1005.62 2279.78 1009.89 2274.6 1015.21 2272.85 1017 2271.41 1019.25 2270.37 1021.55 2269.9 1022.6 2270.37 1024.43 2271.01 1025.6 2271.94 1027.36 2273.86 1028.11 2275.74 1027.49 2277.79 1026.79 2279.67 1025.6 2281.59 1024.54 2287.4 1021.36 2293.16 1018.11 2298.99 1014.96 2300.76 1013.99 2302.58 1014.27 2303.99 1015.79 2306.99 1019.03 2310.55 1021.7 2314.5 1023.67 2319.23 1026.03 2323.03 1024.68 2326.75 1021.82 2328.85 1020.18 2329.47 1016.89 2327.71 1014.86 2325.57 1012.37 2323.16 1010.11 2320.54 1008.12 2316.08 1004.81 2313.67 1000.57 2313.5 995.03 2313.44 992.823 2313.33 990.613 2313.35 988.396 2313.36 986.711 2314.34 985.749 2316 985.467 2326.35 983.766 2335.58 979.218 2344.67 974.275 2348.25 972.342 2351.36 969.628 2353.75 966.334 2355.36 964.089 2355.97 961.659 2354.59 959.095 2353.11 956.327 2350.88 954.547 2347.57 954.499Z" fill="#FFDB6E"/></g></g></g><g clip-path="url(#clip7)"><g clip-path="url(#clip8)"><g clip-path="url(#clip9)"><path d="M232.854 361.803C227.125 361.807 222.079 358.035 220.461 352.54L184.912 232.44 142.118 232.44C136.141 232.438 130.943 228.342 129.544 222.53L104.293 117.695 77.178 222.737C75.6956 228.443 70.5503 232.429 64.6557 232.44L12.9363 232.44 12.9363 207.783 54.5912 207.783 92.1583 62.2495C93.6327 56.5391 98.7829 52.5488 104.681 52.5473L104.784 52.5473C110.723 52.5963 115.865 56.6825 117.255 62.4565L152.235 207.783 194.536 207.783C200.28 207.783 205.325 211.56 206.929 217.045L232.931 303.615 259.321 216.994C260.959 211.519 266 207.772 271.714 207.783L289.489 207.783 324.339 136.996C326.507 132.609 330.96 129.817 335.853 129.777L335.956 129.777C340.82 129.777 345.244 132.468 347.443 136.789L383.924 207.783 426.096 207.783 426.096 232.44 376.007 232.44C371.161 232.459 366.718 229.747 364.519 225.428L336.189 170.294 309.1 225.221C306.943 229.641 302.453 232.443 297.535 232.44L281.339 232.44 245.221 352.592C243.601 358.068 238.564 361.819 232.854 361.803Z" fill="#FFDB6E" transform="matrix(1 0 0 1.00038 2407 766)"/></g></g></g></g></svg>