<svg width="1122" height="1180" xmlns="http://www.w3.org/2000/svg" xmlns:xlink="http://www.w3.org/1999/xlink" xml:space="preserve" overflow="hidden"><defs><clipPath id="clip0"><rect x="1572" y="514" width="1122" height="1180"/></clipPath><clipPath id="clip1"><rect x="1609" y="610" width="266" height="988"/></clipPath><clipPath id="clip2"><rect x="1609" y="610" width="260" height="988"/></clipPath><clipPath id="clip3"><rect x="1222" y="610" width="647" height="988"/></clipPath><clipPath id="clip4"><path d="M1572.04 894.312 2096.28 514.138 2675.68 1313.1 2151.44 1693.27Z" fill-rule="evenodd" clip-rule="evenodd"/></clipPath><clipPath id="clip5"><path d="M1572.04 894.312 2096.28 514.138 2675.68 1313.1 2151.44 1693.27Z" fill-rule="evenodd" clip-rule="evenodd"/></clipPath><clipPath id="clip6"><path d="M1572.04 894.312 2096.28 514.138 2675.68 1313.1 2151.44 1693.27Z" fill-rule="evenodd" clip-rule="evenodd"/></clipPath><clipPath id="clip7"><rect x="2427" y="656" width="267" height="989"/></clipPath><clipPath id="clip8"><rect x="2427" y="656" width="267" height="989"/></clipPath><clipPath id="clip9"><rect x="2427" y="656" width="651" height="989"/></clipPath></defs><g clip-path="url(#clip0)" transform="translate(-1572 -514)"><g clip-path="url(#clip1)"><g clip-path="url(#clip2)"><g clip-path="url(#clip3)"><path d="M342.365 531.958C333.942 531.964 326.523 526.419 324.143 518.34L271.876 341.756 208.956 341.756C200.168 341.754 192.525 335.731 190.469 327.186L153.341 173.046 113.475 327.491C111.295 335.879 103.73 341.74 95.0632 341.756L19.0202 341.756 19.0202 305.504 80.2652 305.504 135.5 91.5254C137.668 83.1292 145.24 77.2622 153.912 77.2603L154.064 77.2603C162.796 77.3323 170.356 83.3401 172.399 91.8298L223.83 305.504 286.026 305.504C294.471 305.504 301.889 311.057 304.248 319.122L342.478 446.405 381.28 319.045C383.688 310.997 391.1 305.488 399.501 305.504L425.635 305.504 476.876 201.425C480.063 194.975 486.61 190.87 493.804 190.811L493.956 190.811C501.108 190.811 507.613 194.768 510.846 201.12L564.483 305.504 626.489 305.504 626.489 341.756 552.843 341.756C545.718 341.784 539.185 337.797 535.953 331.447L494.298 250.383 454.47 331.142C451.298 337.641 444.697 341.761 437.466 341.756L413.653 341.756 360.548 518.416C358.166 526.467 350.76 531.982 342.365 531.958Z" fill="#FFDB6E" transform="matrix(-1 1.22465e-16 -1.8691e-16 -1.52624 1868.94 1597)"/></g></g></g><g clip-path="url(#clip4)"><g clip-path="url(#clip5)"><g clip-path="url(#clip6)"><path d="M616.215 355.259C616.139 354.177 616.205 353.094 616.205 351.996L616.154 351.996C616.154 344.407 616.609 336.778 616.053 329.23 615.071 316.278 614.748 303.073 611.818 290.527 607.265 270.947 598.578 253.225 586.522 236.565 572.508 217.208 555.61 201.858 535.965 188.957 533.243 187.161 530.602 185.264 527.901 183.453 513.492 173.759 499.544 163.54 486.132 152.45 472.34 141.067 457.092 131.505 440.457 124.533 431.386 120.739 422.092 118.093 412.1 118.31 403.955 118.462 395.809 117.956 387.679 118.462 379.67 119.008 373.25 117.157 366.901 111.683 355.912 102.197 342.809 97.2284 327.894 98.3515L303.6 100.173C290.107 101.185 276.715 102.94 263.303 104.878 252.314 106.446 242.094 109.158 232.947 115.426 227.433 119.206 222.561 121.406 215.068 118.614 203.796 114.415 191.644 116.211 179.689 117.258 142.67 120.511 113.919 137.454 93.1962 168.134 90.1809 172.611 87.9143 177.62 84.9193 182.122 82.819 185.226 80.383 188.088 77.6542 190.657 70.9355 196.971 63.7666 202.799 57.2452 209.301 53.8556 212.66 51.1742 216.839 48.6344 220.937 36.5934 240.405 33.5781 262.453 31.0941 284.547 30.6792 288.139 31.9187 292.004 32.8749 295.626 37.8026 314.548 51.3664 328.486 61.3078 344.514 62.1173 345.794 63.8121 346.573 65.2034 347.397 71.0974 350.772 73.0655 355.897 72.4988 362.474 71.7248 371.297 75.8379 378.056 81.909 384.026 87.373 389.409 93.1405 394.388 100.148 397.509 110.529 402.154 120.85 407.147 131.641 410.552 145.843 415.029 158.556 421.859 170.319 430.763 173.775 433.384 177.174 436.076 180.741 438.555 190.976 445.688 201.049 453.125 212.716 457.871 230.979 465.288 249.395 466.487 268.013 459.034 275.48 456.05 276.143 456.404 278.435 463.436 279.599 467.053 280.54 470.736 281.89 474.283 285.204 483.056 289.985 490.958 297.523 496.68 309.17 505.569 320.755 514.539 332.908 522.685 356.959 538.824 384.067 546.109 412.692 547.222 428.881 547.88 445.238 548.674 461.362 545.35 465.055 544.591 468.951 544.475 472.72 544.692 484.285 545.426 495.299 542.669 506.394 540.139 517.737 537.559 527.744 532.398 536.83 525.265 544.925 518.89 553.182 512.708 560.998 505.989 569.194 498.927 576.97 491.353 584.853 483.921 586.006 482.843 586.912 481.356 587.569 479.904 591.364 471.541 595.295 463.208 598.679 454.658 601.057 448.688 603.46 442.551 601.057 435.787 600.602 434.548 601.604 432.666 602.211 431.214 612.592 406.95 618.097 381.785 616.189 355.254ZM559.84 389.399C552.605 387.765 544.637 388.372 537.144 389.222 523.853 390.72 514.094 397.873 508.053 410.016 505.762 414.65 505.559 419.375 506.652 424.283 507.477 427.991 510.851 431.113 514.585 431.467 518.683 431.871 522.093 430.597 524.278 426.893 524.562 426.418 524.961 425.982 525.078 425.456 527.289 415.267 534.741 413.405 543.564 413.856 551.684 414.27 559.825 414.716 567.94 415.287 570.115 415.449 571.43 418.12 570.489 420.124 565.719 430.46 560.472 440.589 556.253 451.152 549.109 469.011 536.987 482.504 520.889 492.436 512.146 497.834 502.756 502.18 493.559 506.773 491.118 507.945 488.492 508.685 485.798 508.959 472.33 510.426 458.832 511.701 445.354 513.027 432.079 514.14 419.4 510.639 406.737 507.846 396.7 505.635 386.92 502.266 377.024 499.417 370.71 497.596 365.069 494.98 360.531 489.678 357.47 486.076 353.094 483.486 349.026 480.825 344.028 477.587 338.741 474.789 333.626 471.718 331.491 470.418 331.552 467.721 333.626 466.77 340.557 463.618 347.605 460.598 355.32 460.32 364.538 459.981 373.761 459.996 382.994 459.986 389.192 459.97 394.428 463.072 399.831 465.551 412.404 471.288 425.573 474.187 439.359 472.866 453.56 471.5 465.262 465.04 473.914 453.722 476.165 450.823 477.319 446.993 478.558 443.452 480.091 439.076 475.968 434.72 471.187 435.762 467.493 436.556 463.881 437.811 460.385 439.243 456.889 440.674 453.515 442.465 450.166 444.277 442.238 448.628 434.108 449.22 425.087 447.828 409.181 445.4 409.489 440.776 412.727 426.387 413.608 422.426 417.028 418.95 419.527 415.474 421.424 412.828 423.878 410.618 425.78 407.997 427.45 405.72 428.031 403.054 426.504 400.398 425.052 397.889 420.954 396.148 418.07 396.654 411.918 397.717 406.955 400.702 403.155 405.71 397.474 413.183 393.72 421.409 392.298 430.784 391.509 435.868 390.649 436.364 386.156 436.46 375.851 436.678 365.53 436.85 355.224 437.017 346.917 437.168 339.287 439.784 331.764 443.027 325.506 445.759 321.605 451.021 317.143 455.726 315.56 457.416 313.318 457.841 311.335 456.211 308.836 454.152 306.499 451.881 304.08 449.705 294.771 441.277 291.619 431.209 295.024 418.864 296.947 411.882 294.797 406.95 290.349 405.002 284.213 402.3 277.62 404.799 273.755 411.204 270.553 416.517 269.971 422.537 269.607 428.406 269.419 431.664 270.148 434.897 267.816 437.614 264.881 441.054 261.046 443.3 256.655 443.745 247.427 444.656 238.275 444.676 229.512 440.669 223.026 437.685 216.788 434.345 212.043 428.998 207.019 423.331 202.43 417.276 197.826 411.26 194.568 407.01 192.322 402.078 186.848 399.654 184.035 398.415 181.814 395.566 179.689 393.128 175.464 388.311 175.894 380.9 180.913 377.257 186.158 373.402 191.662 369.913 197.386 366.815 208.896 360.632 220.593 363.4 232.092 367.083 234.673 367.892 236.975 369.461 239.479 370.508 255.213 377.186 271.048 377.505 286.833 370.741 292.312 368.398 297.508 365.429 302.932 362.914 318.211 355.846 326.543 342.692 333.474 328.294 334.183 326.847 334.426 325.187 334.942 323.654 336.136 320.214 335.336 317.199 332.898 314.679 331.011 312.742 326.69 312.656 323.832 314.872 317.799 319.485 311.919 324.294 306.2 329.29 298.468 336.141 289.762 341.806 280.368 346.102 277.924 347.225 275.425 348.708 272.829 349.021 256.265 350.995 252.628 350.317 256.893 332.478 257.51 329.862 258.411 327.267 259.574 324.828 261.517 320.791 264.38 317.846 269.116 316.754 272.783 315.87 276.308 314.476 279.588 312.615 284.309 309.994 284.445 304.004 280.145 300.372 278.921 299.34 277.605 298.262 276.133 297.701 266.146 293.83 253.063 297.012 246.511 305.264 239.995 313.46 235.381 322.481 234.91 333.343 234.673 338.792 233.291 339.53 227.666 339.505 223.335 339.505 218.994 339.454 214.648 339.353 203.487 339.136 193.172 342.288 183.635 347.838 178.5 350.823 173.77 354.516 168.746 357.728 160.55 362.96 155.116 369.81 154.013 379.888 153.507 384.421 151.205 385.908 147.527 385.149 135.208 382.6 123.445 378.76 113.883 369.987 109.548 366.031 107.559 361.589 108.703 355.538 111.485 340.714 110.995 325.182 118.351 311.35 123.187 302.274 127.558 292.904 133.103 284.283 135.937 279.882 140.712 276.644 144.912 273.254 146.48 272.04 148.984 271.221 150.942 271.398 161.162 272.369 171.366 273.573 181.51 275.04 184.09 275.445 186.392 277.469 188.978 278.192 196.253 280.216 203.523 282.629 210.95 283.631 228.151 285.928 242.934 279.887 255.845 268.792 262.878 262.746 269.354 256.119 273.958 247.999 279.796 237.642 288.103 230.301 299.284 226.214 300.792 225.657 302.335 225.05 303.67 224.165 306.099 222.571 307.429 220.168 307.141 217.284 306.838 214.35 304.763 212.63 302.198 211.329 298.085 209.28 293.78 209.204 289.5 210.231 282.589 211.876 275.951 214.355 270.335 218.822 263.567 224.24 256.907 229.792 250.361 235.477 247.073 238.3 244.047 241.422 240.901 244.432 229.138 255.684 215.377 257.758 200.209 253.194 194.492 251.464 188.689 249.987 183.18 247.766 178.666 245.909 173.883 244.792 169.014 244.457 166.393 244.275 162.968 244.229 162.573 240.931 162.401 239.464 164.521 237.359 166.049 236.094 175.368 228.293 185.613 222.596 198.094 221.493 202.364 221.109 206.68 219.864 210.641 218.205 214.041 216.773 217.233 214.512 220.031 212.033 223.32 209.149 222.394 203.229 218.645 200.685 213.99 197.523 208.916 195.98 203.24 197.042 197.391 198.145 191.477 199.035 185.684 200.432 166.945 204.945 152.435 215.883 140.672 230.777 136.941 235.5 134.762 241.26 134.434 247.27 134.257 250.296 132.41 252.835 129.795 253.356 121.609 254.975 118.174 262.767 111.753 266.622 110.109 267.603 109.244 270.037 108.222 271.909 103.011 281.43 97.9164 290.941 94.638 301.404 92.5638 308.006 87.3173 309.104 82.0406 304.308 78.0336 300.691 74.5023 296.537 70.8242 292.57 70.1229 291.74 69.5253 290.828 69.0434 289.854 64.3737 281.42 64.8088 255.264 69.9389 247.128 74.5782 239.803 79.516 232.674 84.2261 225.404 86.5749 221.722 89.945 218.804 93.9247 217.006 95.3919 216.323 96.8945 215.599 98.4578 215.235 111.713 212.038 112.664 200.664 115.179 190.303 112.7 175.555 121.118 166.813 132.38 159.963 138.895 156.071 145.617 152.537 152.516 149.374 159.953 145.949 167.805 143.859 176.102 143.788 182.062 143.738 188.026 143.627 194.001 143.485 202.804 143.262 211.405 144.183 219.247 148.529 223.38 150.806 227.408 151.008 231.733 149.49 240.42 146.475 249.314 143.935 257.819 140.449 270.092 135.4 282.71 133.012 295.915 133.544 304.06 133.847 312.195 134.1 320.331 134.404 321.949 134.49 323.619 134.434 325.187 134.773 332.796 136.468 339.186 140.363 344.605 145.903 344.554 152.885 344.301 159.917 341.266 166.353 339.191 170.754 336.206 174.751 334.274 179.193 331.795 184.885 333.14 191.249 336.753 194.249 340.952 197.776 348.328 197.437 353.079 192.539 362.337 183.028 369.395 172.287 369.167 158.197 369.117 154.418 369.193 150.618 369.673 146.885 370.078 143.799 373.67 141.34 376.832 141.355 377.91 141.355 379.043 141.234 380.085 141.441 395.516 144.628 410.608 148.919 424.849 155.743 428.553 157.524 431.831 160.13 435.322 162.361 431.593 163.084 427.824 163.575 424.171 164.526 419.985 165.646 415.86 166.979 411.812 168.523 409.297 169.484 406.854 170.785 404.653 172.307 400.707 175.039 398.582 180.134 399.563 183.503 400.843 187.885 405.26 190.409 411.376 190.005 414.081 189.836 416.765 189.412 419.39 188.74 430.976 185.719 442.764 184.273 454.704 183.665 458.933 183.443 463.33 182.643 467.266 181.11 472.163 179.198 475.512 180.463 478.75 184.095 480.531 186.094 482.474 188.269 484.811 189.347 495.006 194.027 501.911 202.46 509.642 210.024 513.866 214.198 518.293 218.185 522.745 222.116 524.638 223.785 527.921 224.746 526.793 227.802 526.474 228.713 522.897 228.794 520.823 228.662 518.121 228.469 515.446 228.001 512.839 227.266 501.831 224.311 491.221 227.114 480.804 229.947 476.883 231 473.418 234.298 470.119 237.01 467.018 239.59 466.001 243.774 467.473 245.661 469.608 248.317 472.315 247.042 474.92 246.592 489.663 244.138 504.203 246.466 518.531 249.324 526.601 250.953 534.589 252.107 542.714 251.702 548.244 251.383 552.15 253.068 554.512 258.193 559.703 269.526 565.248 280.707 570.145 292.14 574.031 301.232 574.425 311.138 575.174 320.852 575.447 324.484 573.343 326.897 570.444 328.795 563.629 333.211 556.197 334.279 548.639 331.729 539.916 328.779 531.417 325.182 522.821 321.904 520.823 321.125 518.84 320.255 516.76 319.82 515.961 319.668 514.656 320.376 514.079 321.084 513.522 321.783 513.103 323.229 513.462 323.938 515.151 327.317 517.292 330.464 518.951 333.884 525.427 347.139 536.426 354.071 550.47 357.142 555.347 358.224 560.047 358.71 564.924 357.496 567.545 356.838 570.211 356.307 572.898 355.877 575.852 355.421 577.83 357.172 577.972 360.496 578.174 364.847 578.306 369.177 578.225 373.523 577.972 389.662 581.286 394.327 559.83 389.46ZM477.713 277.398C472.664 277.322 468.227 278.991 463.912 281.572 454.603 287.167 444.914 291.943 434.528 295.333 429.64 296.932 425.724 295.636 422.901 292.019 418.571 286.474 414.797 280.509 410.921 274.605 410.086 273.33 409.368 271.519 409.545 270.082 410.946 259.559 413.238 249.825 425.517 246.167 429.984 244.842 434.042 241.654 437.877 238.781 441.266 236.2 440.275 230.752 436.42 229.573 419.471 224.377 405.366 231.177 398.981 241.432 396.705 245.1 395 249.137 393.062 253.007 390.801 257.51 389.991 258.147 385.716 257.227 365.388 252.916 348.51 259.787 333.717 273.244 331.329 275.405 329.184 278.071 330.176 281.754 330.753 283.929 334.699 284.971 338.837 284 340.942 283.494 342.925 282.452 345.035 282.078 352.497 280.828 359.99 279.74 367.548 278.587 374.606 279.315 381.107 281.066 386.571 286.398 393.715 293.38 397.322 302.638 403.165 310.414 402.457 315.676 401.455 320.917 401.142 326.209 400.868 330.51 401.116 334.896 401.698 339.171 402.265 343.593 400.803 346.522 396.811 348.263 386.743 352.664 377.925 358.948 370.301 366.779 367.72 369.42 365.606 372.734 364.078 376.109 363.38 377.662 364.078 380.348 365.009 382.068 366.385 384.659 369.208 385.772 371.98 384.851 375.001 383.824 377.768 382.068 380.591 380.52 389.141 375.84 397.61 371.044 406.191 366.42 408.801 364.993 411.478 365.393 413.557 367.634 417.974 372.4 423.215 376.331 429.028 379.235 435.99 382.711 441.575 380.712 447.054 376.503 450.15 374.095 451.051 369.258 448.471 366.273 445.311 362.602 441.774 359.273 437.917 356.342 431.355 351.47 427.799 345.232 427.556 337.082 427.465 333.834 427.303 330.581 427.328 327.317 427.338 324.838 428.785 323.422 431.224 323.007 446.462 320.503 460.046 313.809 473.428 306.534 478.701 303.69 483.266 299.696 486.784 294.847 489.162 291.543 490.058 287.967 488.024 284.192 485.848 280.12 482.56 277.499 477.693 277.428Z" fill="#FFDB6E" transform="matrix(0.809538 -0.587067 0.894708 1.23376 1572.04 894.312)"/></g></g></g><g clip-path="url(#clip7)"><g clip-path="url(#clip8)"><g clip-path="url(#clip9)"><path d="M343.657 533.966C335.202 533.971 327.755 528.406 325.366 520.296L272.902 343.046 209.745 343.046C200.923 343.044 193.252 336.998 191.188 328.421L153.92 173.699 113.903 328.727C111.715 337.146 104.122 343.03 95.422 343.046L19.092 343.046 19.092 306.656 80.5681 306.656 136.012 91.8708C138.188 83.4429 145.788 77.5538 154.493 77.5519L154.645 77.5519C163.41 77.6242 170.999 83.6546 173.05 92.1763L224.675 306.656 287.106 306.656C295.583 306.656 303.029 312.231 305.396 320.326L343.771 448.09 382.719 320.249C385.136 312.17 392.576 306.641 401.009 306.656L427.242 306.656 478.676 202.185C481.875 195.711 488.447 191.591 495.667 191.531L495.82 191.531C502.999 191.531 509.528 195.503 512.774 201.879L566.614 306.656 628.853 306.656 628.853 343.046 554.929 343.046C547.777 343.074 541.22 339.072 537.975 332.698L496.163 251.328 456.185 332.392C453.001 338.915 446.375 343.051 439.117 343.046L415.214 343.046 361.908 520.373C359.518 528.454 352.084 533.99 343.657 533.966Z" fill="#FFDB6E" transform="matrix(1 0 0 1.5205 2428 657)"/></g></g></g></g></svg>