<?xml version="1.0" standalone="no"?><!DOCTYPE svg PUBLIC "-//W3C//DTD SVG 1.1//EN" "http://www.w3.org/Graphics/SVG/1.1/DTD/svg11.dtd"><svg t="1686558742652" class="icon" viewBox="0 0 1024 1024" version="1.1" xmlns="http://www.w3.org/2000/svg" p-id="6217" xmlns:xlink="http://www.w3.org/1999/xlink" width="128" height="128"><path d="M564.48 85.461333a314.538667 314.538667 0 0 0-232.661333 90.197334A317.44 317.44 0 0 0 234.666667 405.333333v1.28l-81.237334 172.544A42.666667 42.666667 0 0 0 192 640h42.666667v85.333333a85.418667 85.418667 0 0 0 85.333333 85.333334h42.666667v85.333333a42.666667 42.666667 0 1 0 85.333333 0v-85.333333a42.666667 42.666667 0 1 0 0-85.333334h-128v-128a42.666667 42.666667 0 0 0-42.666667-42.666666h-18.090666l57.173333-121.344a42.24 42.24 0 0 0 4.053333-19.84L320 405.333333a232.746667 232.746667 0 0 1 71.253333-168.405333 235.818667 235.818667 0 0 1 170.666667-66.133333 242.56 242.56 0 0 1 227.413333 246.186666l-83.925333 320.170667a43.093333 43.093333 0 0 0 0.256 22.784l42.666667 147.882667a42.709333 42.709333 0 0 0 52.821333 29.184 42.666667 42.666667 0 0 0 29.184-52.821334l-39.424-136.533333 82.346667-310.058667c0.938667-3.541333 1.408-7.253333 1.408-10.922666v-9.728a328.448 328.448 0 0 0-310.186667-331.477334z" fill="#FFDB6E" p-id="6218"></path></svg>