<svg width="1085" height="1034" xmlns="http://www.w3.org/2000/svg" xmlns:xlink="http://www.w3.org/1999/xlink" xml:space="preserve" overflow="hidden"><defs><clipPath id="clip0"><rect x="1535" y="582" width="1085" height="1034"/></clipPath></defs><g clip-path="url(#clip0)" transform="translate(-1535 -582)"><path d="M1911.78 945.799C1911.78 931.849 1935.52 914.173 1947.08 904.266 1945.02 898.401 1942.49 892.773 1939.64 887.384 1924.52 888.416 1895.71 893.328 1886.05 883.579 1876.64 874.226 1881.15 845.533 1881.86 830.871 1876.02 827.993 1869.99 825.53 1863.81 823.5 1854 834.279 1837.3 857.898 1824 857.898 1810.7 857.898 1793.92 834.279 1784.11 823.5 1777.93 825.53 1771.9 827.993 1766.07 830.871 1766.78 845.533 1771.37 874.226 1761.95 883.657 1752.29 893.326 1723.41 888.492 1708.37 887.382 1705.52 892.77 1702.98 898.401 1700.93 904.265 1712.48 914.171 1736.3 931.847 1736.3 945.797 1736.3 960.141 1711.93 977.815 1699.5 987.724 1701.23 993.204 1703.35 998.553 1705.83 1003.73 1721.66 1001.83 1751.74 997.631 1761.95 1007.93 1772.48 1018.48 1767.89 1048.83 1765.59 1065.08 1770.48 1067.56 1775.53 1069.7 1780.71 1071.5 1790.52 1058.26 1809.12 1033.61 1824 1033.61 1838.96 1033.61 1857.48 1058.26 1867.29 1071.5 1872.47 1069.7 1877.52 1067.56 1882.41 1065.08 1880.04 1048.83 1875.53 1018.48 1886.05 1007.93 1896.26 997.631 1926.26 1001.83 1942.17 1003.73 1944.65 998.553 1946.77 993.204 1948.5 987.724 1936.08 977.82 1911.78 960.143 1911.78 945.799ZM1824 985.43C1802 985.43 1784.11 967.516 1784.11 945.483 1784.11 923.369 1802 905.536 1824 905.536 1846 905.5 1863.86 923.326 1863.89 945.351 1863.89 945.395 1863.89 945.439 1863.89 945.483 1863.89 967.516 1846.09 985.43 1824 985.43Z" stroke="#FFDB6E" stroke-width="1.05741" stroke-miterlimit="8" fill="#FFDB6E" fill-rule="evenodd"/><path d="M1783.23 1081 1777.35 1078.95C1771.81 1077.02 1766.4 1074.72 1761.16 1072.07L1755.76 1069.33 1756.77 1062.2C1758.39 1050.82 1762.68 1020.59 1755.36 1013.27 1754.11 1012.02 1749.67 1009.11 1735.47 1009.11 1726.19 1009.11 1715.98 1010.35 1708.53 1011.26L1700.13 1012.27 1697.51 1006.78C1694.76 1000.99 1692.54 995.392 1690.74 989.652L1689 984.1 1697.3 977.511C1706.25 970.497 1727.18 954.062 1727.18 945.09 1727.18 936.995 1708.77 921.722 1699.92 914.383 1698.19 912.949 1696.46 911.501 1694.74 910.038L1690.34 906.264 1692.26 900.789C1694.34 894.86 1697.02 888.783 1700.21 882.735L1702.81 877.835 1708.33 878.243C1710.76 878.424 1713.55 878.698 1716.56 878.995 1723.31 879.66 1730.97 880.416 1738.07 880.416 1750.58 880.416 1754.33 878.008 1755.37 876.971 1760.31 871.985 1758.55 850.32 1757.69 839.906 1757.41 836.461 1757.16 833.28 1757.02 830.566L1756.75 825.011 1761.74 822.552C1767.93 819.497 1774.34 816.881 1780.9 814.72L1786.12 813 1789.82 817.065C1791.76 819.184 1793.95 821.785 1796.32 824.61 1802.92 832.431 1816.63 848.708 1823.5 848.708 1830.3 848.708 1843.98 832.467 1850.55 824.663 1852.95 821.819 1855.16 819.199 1857.1 817.062L1860.81 813.002 1866.02 814.724C1872.59 816.883 1878.99 819.497 1885.19 822.55L1890.17 825.009 1889.9 830.566C1889.77 833.278 1889.52 836.453 1889.23 839.895 1888.38 850.301 1886.62 871.953 1891.57 876.905 1892.62 877.965 1896.36 880.377 1908.84 880.377 1915.79 880.377 1923.29 879.653 1929.92 879.014 1933.14 878.704 1936.13 878.417 1938.72 878.241L1944.21 877.865 1946.79 882.735C1949.98 888.783 1952.66 894.86 1954.74 900.789L1956.66 906.264 1952.26 910.038C1950.72 911.361 1948.96 912.818 1947.08 914.383 1938.23 921.72 1919.82 936.995 1919.82 945.09 1919.82 954.062 1940.75 970.497 1949.7 977.511L1958 984.1 1956.26 989.652C1954.41 995.517 1952.14 1001.24 1949.48 1006.78L1946.85 1012.27 1938.4 1011.26C1930.94 1010.35 1920.72 1009.11 1911.46 1009.11 1897.26 1009.11 1892.82 1012.02 1891.57 1013.27 1884.14 1020.71 1888.62 1051.3 1890.31 1062.82L1891.2 1068.85 1885.84 1072.08C1880.6 1074.73 1875.19 1077.02 1869.65 1078.95L1863.77 1081 1860.05 1076C1853.71 1067.46 1834.42 1041.47 1823.5 1041.47 1812.57 1041.47 1793.29 1067.46 1786.95 1076L1783.23 1081ZM1823.49 1024.51C1839.21 1024.51 1854.96 1041.34 1869.8 1060.76 1870.79 1060.36 1871.76 1059.95 1872.73 1059.52 1869.59 1036.44 1868.19 1012.67 1879.58 1001.28 1885.72 995.133 1896.14 992.149 1911.46 992.149 1920.18 992.149 1929.28 993.09 1936.65 993.963 1937.19 992.654 1937.71 991.35 1938.2 990.044 1919.45 975.281 1902.87 960.709 1902.87 945.088 1902.87 929.023 1922.16 913.011 1936.25 901.323L1936.67 900.976C1935.92 899.176 1935.13 897.393 1934.29 895.631 1933.4 895.714 1932.48 895.803 1931.55 895.895 1924.54 896.57 1916.6 897.336 1908.84 897.336 1894.59 897.336 1885.29 894.648 1879.56 888.878 1869.08 878.396 1870.89 856.281 1872.34 838.513L1872.59 835.383C1870.41 834.422 1868.2 833.522 1865.97 832.686 1865.18 833.616 1864.36 834.591 1863.51 835.593 1852.23 848.993 1838.18 865.667 1823.5 865.667 1808.75 865.667 1794.68 848.963 1783.37 835.542 1782.54 834.557 1781.73 833.599 1780.95 832.681 1778.72 833.522 1776.51 834.422 1774.33 835.381L1774.59 838.519C1776.04 856.281 1777.85 878.386 1767.38 888.94 1761.62 894.701 1752.31 897.373 1738.07 897.373 1730.13 897.373 1722.04 896.574 1714.9 895.869L1712.7 895.655C1711.85 897.438 1711.06 899.214 1710.34 900.976 1710.47 901.089 1710.61 901.206 1710.75 901.323 1724.84 913.011 1744.14 929.023 1744.14 945.088 1744.14 960.711 1727.55 975.281 1708.8 990.044 1709.29 991.348 1709.81 992.65 1710.35 993.958 1717.71 993.085 1726.77 992.147 1735.48 992.147 1750.79 992.147 1761.22 995.13 1767.35 1001.28 1778.81 1012.74 1777.41 1035.91 1774.26 1059.51 1775.23 1059.94 1776.21 1060.35 1777.2 1060.76 1792.02 1041.34 1807.77 1024.51 1823.49 1024.51Z" fill="#FFDB6E" fill-rule="evenodd"/><path d="M1823.5 993C1796.75 993 1775 971.245 1775 944.502 1775 917.76 1796.75 896 1823.5 896 1850.24 896 1872 917.758 1872 944.502 1872 971.245 1850.24 993 1823.5 993ZM1823.5 912.98C1806.12 912.98 1791.98 927.121 1791.98 944.502 1791.98 961.884 1806.12 976.023 1823.5 976.023 1840.88 976.023 1855.02 961.884 1855.02 944.502 1855.02 927.121 1840.88 912.98 1823.5 912.98Z" fill="#FFDB6E" fill-rule="evenodd"/><path d="M1614.99 1393C1592.39 1393 1574 1374.61 1574 1351.99L1574 661.061C1574 638.421 1592.39 620 1614.99 620L2492.88 620C2502.29 620 2511.1 623.654 2517.68 630.29 2524.35 636.906 2528 645.721 2528 655.14L2528 820.425C2522.96 816.334 2517.75 812.458 2512.38 808.805L2512.38 649.5 1594.41 649.5 1594.41 1295.65 2141.6 1295.65 2141.6 1393 1614.99 1393Z" fill="#FFDB6E" fill-rule="evenodd"/><path d="M2317.08 1431.5 1614.86 1431.5C1571.1 1431.5 1535.5 1395.93 1535.5 1352.2L1535.5 661.745C1535.5 618.049 1571.1 582.5 1614.86 582.5L2487.54 582.5C2531.08 582.5 2566.5 617.873 2566.5 661.351L2566.5 875.245 2551.5 856.937C2544.36 848.25 2536.57 840.122 2528.2 832.625 2520.08 825.28 2511.41 818.56 2502.27 812.526 2494.81 807.471 2487.02 802.915 2478.95 798.89L2474.28 796.553 2474.28 688.464 1632.57 688.464 1632.57 1257.68 2150.07 1257.68 2150.07 1414.54 2325.54 1414.54 2325.54 1431.45 2317.08 1431.5ZM1614.86 599.409C1580.43 599.409 1552.42 627.373 1552.42 661.745L1552.42 1352.2C1552.42 1386.6 1580.43 1414.59 1614.86 1414.59L2133.15 1414.59 2133.15 1274.59 1615.65 1274.59 1615.65 671.553 2491.2 671.553 2491.2 786.171C2498.25 789.898 2505.08 794.006 2511.68 798.475 2521.49 804.956 2530.8 812.171 2539.52 820.06 2542.97 823.146 2546.32 826.33 2549.58 829.61L2549.58 661.351C2549.58 627.197 2521.75 599.409 2487.54 599.409L1614.86 599.409Z" stroke="#FFDB6E" stroke-width="1.05741" stroke-miterlimit="8" fill="#FFDB6E" fill-rule="evenodd"/><path d="M2214 1553 1888 1553 1942.82 1420.85 1942.82 1414.06 1951.27 1414 2159.12 1414 2159.12 1420.84 2214 1553ZM1913.35 1536.02 2188.64 1536.02 2145.01 1430.98 1956.93 1430.98 1913.35 1536.02Z" fill="#FFDB6E" fill-rule="evenodd"/><path d="M1937 1520 1967.45 1447 2134.55 1447 2165 1520Z" fill="#FFDB6E" fill-rule="evenodd"/><path d="M2325 1616 1757 1616 1757 1536 2325 1536 2325 1616ZM1773.91 1599.12 2308.09 1599.12 2308.09 1552.88 1773.91 1552.88 1773.91 1599.12Z" fill="#FFDB6E" fill-rule="evenodd"/><path d="M1790 1569 2312 1569 2312 1584 1790 1584Z" fill="#FFDB6E" fill-rule="evenodd"/><path d="M1565 1599 2317 1599 2317 1616 1565 1616Z" fill="#FFDB6E" fill-rule="evenodd"/><path d="M2013.5 1346C2013.5 1367.26 2030.51 1384.5 2051.5 1384.5 2072.49 1384.5 2089.5 1367.26 2089.5 1346 2089.5 1324.74 2072.49 1307.5 2051.5 1307.5 2030.51 1307.5 2013.5 1324.74 2013.5 1346Z" stroke="#000000" stroke-width="1.05741" stroke-miterlimit="8" fill="#FFFFFF" fill-rule="evenodd"/><path d="M2050.5 1392C2024.86 1392 2004 1371.14 2004 1345.5 2004 1319.86 2024.86 1299 2050.5 1299 2076.14 1299 2097 1319.86 2097 1345.5 2097 1371.14 2076.14 1392 2050.5 1392ZM2050.5 1315.86C2034.15 1315.86 2020.86 1329.15 2020.86 1345.5 2020.86 1361.84 2034.15 1375.14 2050.5 1375.14 2066.84 1375.14 2080.14 1361.84 2080.14 1345.5 2080.14 1329.15 2066.84 1315.86 2050.5 1315.86Z" fill="#FFDB6E" fill-rule="evenodd"/><path d="M2620 1608 2603.08 1608 2603.08 1000.59C2603.08 875.607 2501.43 773.928 2376.49 773.928 2251.54 773.928 2149.89 875.607 2149.89 1000.59L2149.89 1098.32 2065.17 1257.58 2149.89 1257.58 2149.89 1414.59 2325.36 1414.59 2325.36 1608 2308.44 1608 2308.44 1431.52 2132.97 1431.52 2132.97 1274.5 2037 1274.5 2132.97 1094.1 2132.97 1000.59C2132.97 866.272 2242.21 757 2376.49 757 2510.76 757 2620 866.274 2620 1000.59L2620 1608Z" fill="#FFDB6E" fill-rule="evenodd"/><path d="M2376.29 794C2262.26 794 2169.53 886.775 2169.53 1000.81L2169.53 1103.46 2166.26 1109.66 2098 1237.97 2169.53 1237.97 2169.53 1394.93 2344.9 1394.93 2344.9 1608 2583 1608 2583 1000.81C2583 886.775 2490.27 794 2376.29 794ZM2496.52 1023.57C2480.62 1021.73 2450.66 1017.5 2440.36 1027.73 2429.84 1038.26 2434.45 1068.62 2436.83 1084.84 2431.94 1087.32 2426.88 1089.45 2421.69 1091.22 2411.86 1078 2393.35 1053.4 2378.44 1053.4 2363.54 1053.4 2345.02 1077.99 2335.19 1091.22 2330 1089.46 2324.94 1087.32 2320.05 1084.84 2322.36 1068.62 2326.97 1038.26 2316.44 1027.73 2306.22 1017.5 2276.18 1021.73 2260.36 1023.57 2257.9 1018.39 2255.79 1013.05 2254.06 1007.58 2266.5 997.747 2290.78 980.067 2290.78 965.692 2290.78 951.855 2267.04 934.177 2255.52 924.338 2257.52 918.419 2260.05 912.807 2262.9 907.427 2277.95 908.579 2306.76 913.422 2316.44 903.737 2325.81 894.283 2321.28 865.687 2320.59 851.083 2326.35 848.162 2332.35 845.779 2338.57 843.705 2348.4 854.466 2365.15 877.986 2378.44 877.986 2391.65 877.986 2408.4 854.466 2418.24 843.705 2424.46 845.779 2430.45 848.162 2436.21 851.083 2435.52 865.689 2430.99 894.283 2440.36 903.661 2450.04 913.422 2478.85 908.503 2493.99 907.427 2496.83 912.807 2499.37 918.419 2501.36 924.338 2489.84 934.177 2466.1 951.855 2466.1 965.692 2466.1 980.067 2490.38 997.745 2502.82 1007.58 2501.09 1013.05 2498.98 1018.39 2496.52 1023.57Z" fill="#FFDB6E" fill-rule="evenodd"/><path d="M2466.28 965.299C2466.28 951.349 2490.02 933.673 2501.58 923.766 2499.52 917.901 2496.99 912.272 2494.14 906.884 2479.02 907.915 2450.21 912.828 2440.55 903.079 2431.13 893.726 2435.65 865.033 2436.36 850.37 2430.52 847.493 2424.49 845.03 2418.31 843 2408.5 853.779 2391.8 877.397 2378.5 877.397 2365.21 877.397 2348.43 853.779 2338.61 843 2332.43 845.03 2326.4 847.493 2320.57 850.37 2321.28 865.033 2325.87 893.726 2316.45 903.157 2306.79 912.826 2277.91 907.992 2262.87 906.882 2260.02 912.27 2257.48 917.901 2255.43 923.765 2266.98 933.671 2290.8 951.347 2290.8 965.297 2290.8 979.641 2266.43 997.315 2254 1007.22 2255.73 1012.7 2257.85 1018.05 2260.33 1023.23 2276.16 1021.34 2306.24 1017.13 2316.45 1027.43 2326.98 1037.98 2322.39 1068.33 2320.09 1084.58 2324.98 1087.06 2330.03 1089.2 2335.21 1091 2345.02 1077.76 2363.62 1053.11 2378.5 1053.11 2393.46 1053.11 2411.98 1077.76 2421.8 1091 2426.97 1089.2 2432.02 1087.06 2436.91 1084.58 2434.54 1068.33 2430.03 1037.98 2440.55 1027.43 2450.77 1017.13 2480.76 1021.33 2496.67 1023.23 2499.15 1018.05 2501.27 1012.7 2503 1007.22 2490.58 997.32 2466.28 979.646 2466.28 965.299ZM2378.5 1004.93C2356.5 1004.93 2338.61 987.016 2338.61 964.983 2338.61 942.869 2356.5 925.036 2378.5 925.036 2400.49 925 2418.35 942.826 2418.39 964.851 2418.39 964.895 2418.39 964.939 2418.39 964.983 2418.39 987.018 2400.58 1004.93 2378.5 1004.93Z" fill="#FFDB6E" fill-rule="evenodd"/><path d="M2418.76 1101 2415.05 1095.99C2408.71 1087.46 2389.43 1061.47 2378.5 1061.47 2367.57 1061.47 2348.28 1087.46 2341.95 1095.99L2338.24 1101 2332.35 1098.95C2326.81 1097.02 2321.4 1094.73 2316.17 1092.08L2310.76 1089.33 2311.77 1082.2C2313.39 1070.82 2317.68 1040.59 2310.36 1033.27 2309.11 1032.02 2304.67 1029.11 2290.48 1029.11 2281.19 1029.11 2270.98 1030.35 2263.53 1031.26L2255.14 1032.28 2252.51 1026.78C2249.86 1021.24 2247.59 1015.51 2245.74 1009.65L2244 1004.1 2252.3 997.517C2261.24 990.498 2282.18 974.061 2282.18 965.087 2282.18 956.99 2263.76 941.71 2254.91 934.366 2253.17 932.937 2251.45 931.494 2249.74 930.038L2245.33 926.263 2247.26 920.78C2249.35 914.814 2252.03 908.741 2255.22 902.731L2257.81 897.838 2263.33 898.244C2265.77 898.424 2268.56 898.698 2271.58 898.995 2278.33 899.66 2285.97 900.414 2293.08 900.414 2305.57 900.414 2309.33 898.01 2310.36 896.974 2315.31 891.985 2313.54 870.322 2312.69 859.912 2312.4 856.464 2312.15 853.28 2312.02 850.564L2311.75 845.007 2316.74 842.543C2322.93 839.495 2329.34 836.882 2335.9 834.722L2341.11 833 2344.82 837.06C2346.75 839.184 2348.95 841.787 2351.33 844.614 2357.92 852.433 2371.63 868.706 2378.5 868.706 2385.3 868.706 2398.98 852.461 2405.56 844.652 2407.95 841.811 2410.16 839.195 2412.11 837.06L2415.8 833 2421.02 834.72C2427.59 836.882 2433.99 839.496 2440.19 842.546L2445.17 845.005 2444.9 850.562C2444.77 853.27 2444.52 856.443 2444.24 859.879 2443.39 870.286 2441.62 891.947 2446.57 896.906 2447.62 897.964 2451.36 900.376 2463.85 900.376 2470.78 900.376 2478.29 899.652 2484.91 899.013 2488.14 898.703 2491.12 898.416 2493.72 898.24L2499.21 897.866 2501.78 902.727C2504.97 908.736 2507.65 914.81 2509.75 920.775L2511.67 926.258 2507.26 930.034C2505.72 931.351 2503.97 932.803 2502.09 934.362 2493.24 941.706 2474.82 956.985 2474.82 965.083 2474.82 974.057 2495.76 990.494 2504.7 997.512L2513 1004.1 2511.26 1009.65C2509.41 1015.51 2507.14 1021.23 2504.49 1026.77L2501.87 1032.27 2493.4 1031.25C2485.94 1030.35 2475.73 1029.11 2466.46 1029.11 2452.26 1029.11 2447.82 1032.01 2446.57 1033.27 2439.14 1040.7 2443.62 1071.25 2445.3 1082.76L2446.19 1088.79 2440.83 1092.07C2435.6 1094.72 2430.19 1097.02 2424.65 1098.94L2418.76 1101ZM2378.5 1044.51C2394.23 1044.51 2409.97 1061.34 2424.8 1080.76 2425.79 1080.36 2426.76 1079.95 2427.73 1079.53 2424.6 1056.41 2423.2 1032.66 2434.59 1021.28 2440.72 1015.14 2451.15 1012.15 2466.46 1012.15 2475.19 1012.15 2484.28 1013.09 2491.65 1013.96 2492.19 1012.67 2492.71 1011.36 2493.2 1010.05 2474.45 995.282 2457.87 980.708 2457.87 965.084 2457.87 949.017 2477.17 932.999 2491.28 921.306L2491.67 920.975C2490.92 919.173 2490.13 917.391 2489.29 915.63L2486.53 915.895C2479.53 916.571 2471.59 917.337 2463.84 917.337 2449.59 917.337 2440.29 914.649 2434.56 908.879 2424.08 898.39 2425.89 876.273 2427.33 858.498L2427.59 855.381C2425.41 854.42 2423.2 853.52 2420.97 852.681 2420.18 853.612 2419.36 854.58 2418.52 855.58 2407.23 868.987 2393.18 885.666 2378.5 885.666 2363.75 885.666 2349.67 868.963 2338.37 855.544 2337.53 854.559 2336.73 853.601 2335.95 852.684 2333.72 853.522 2331.51 854.422 2329.32 855.381L2329.58 858.526C2331.03 876.286 2332.84 898.388 2322.37 908.945 2316.61 914.7 2307.31 917.373 2293.07 917.373 2285.14 917.373 2277.05 916.579 2269.92 915.874L2267.69 915.655C2266.85 917.433 2266.06 919.208 2265.33 920.975L2265.72 921.306C2279.83 933.001 2299.13 949.017 2299.13 965.084 2299.13 980.708 2282.55 995.28 2263.8 1010.05 2264.28 1011.35 2264.8 1012.65 2265.35 1013.96 2272.7 1013.09 2281.76 1012.15 2290.48 1012.15 2305.78 1012.15 2316.21 1015.13 2322.35 1021.28 2333.81 1032.74 2332.41 1055.91 2329.25 1079.52 2330.23 1079.94 2331.2 1080.36 2332.2 1080.76 2347.02 1061.34 2362.77 1044.51 2378.5 1044.51Z" fill-rule="evenodd"/><path d="M2378.62 1013.56C2351.94 1013.56 2330.24 991.9 2330.24 965.279 2330.24 938.657 2351.94 917 2378.62 917 2405.3 917 2427 938.657 2427 965.279 2427 991.9 2405.3 1013.56 2378.62 1013.56ZM2378.62 933.898C2361.28 933.898 2347.17 947.974 2347.17 965.277 2347.17 982.579 2361.28 996.657 2378.62 996.657 2395.96 996.657 2410.06 982.579 2410.06 965.277 2410.06 947.974 2395.96 933.898 2378.62 933.898ZM1968 1048.1 2082.06 1048.1 2082.06 1065 1968 1065Z" fill="#FFDB6E" fill-rule="evenodd"/><path d="M2047.85 1097 2036.72 1084.25 2069.23 1056.18 2036.62 1027.12 2047.95 1014.54 2094.89 1056.38ZM2005 848 2147 848 2147 864.884 2005 864.884Z" fill="#FFDB6E" fill-rule="evenodd"/><path d="M2039.72 898 1993 855.893 2039.82 815 2050.9 827.829 2018.55 856.093 2051 885.341Z" fill="#FFDB6E" fill-rule="evenodd"/></g></svg>