<svg width="997" height="1020" xmlns="http://www.w3.org/2000/svg" xmlns:xlink="http://www.w3.org/1999/xlink" xml:space="preserve" overflow="hidden"><defs><clipPath id="clip0"><rect x="1671" y="738" width="997" height="1020"/></clipPath><clipPath id="clip1"><rect x="2205" y="833" width="463" height="359"/></clipPath><clipPath id="clip2"><rect x="2205" y="833" width="463" height="359"/></clipPath><clipPath id="clip3"><rect x="2205" y="833" width="463" height="359"/></clipPath><clipPath id="clip4"><rect x="1670" y="995" width="823" height="763"/></clipPath><clipPath id="clip5"><rect x="1670" y="995" width="823" height="763"/></clipPath><clipPath id="clip6"><rect x="1670" y="995" width="823" height="763"/></clipPath></defs><g clip-path="url(#clip0)" transform="translate(-1671 -738)"><path d="M2066.82 1046.5C2037.16 1046.5 2008.57 1041.67 1994.21 1032.4 1993.53 1031.95 1992.81 1031.5 1992.07 1031.04 1979.21 1022.92 1957.68 1009.34 1955.71 960.43 1953.94 916.649 1961.35 809.918 2067.98 764.527 2155.35 727.334 2250.44 740.319 2304.6 796.845 2359.36 853.998 2310.34 896.5 2309.84 896.924 2306.27 899.789 2300.37 899.864 2296.68 897.091 2293.11 894.417 2292.88 890.048 2296.14 887.153 2297.72 885.796 2334.99 852.769 2289.66 805.454 2241.29 754.97 2155.81 743.609 2076.94 777.183 1979.33 818.73 1972.65 918.859 1974.31 959.983 1976.01 1002.31 1992.74 1012.86 2003.82 1019.84 2004.62 1020.35 2005.39 1020.84 2006.13 1021.31 2026.7 1034.61 2093.4 1035.74 2127.09 1023.37 2155.66 1012.88 2140.7 983.888 2140.05 982.659 2138.1 978.978 2140.36 974.768 2145.1 973.242 2149.84 971.72 2155.27 973.456 2157.24 977.124 2165.18 991.899 2170.76 1023.3 2135.06 1036.41 2116.54 1043.2 2091.32 1046.5 2066.82 1046.5Z" stroke="#FFDB6E" stroke-width="0.610991" stroke-miterlimit="8" fill="#FFDB6E" fill-rule="evenodd"/><path d="M2274.11 1017.5C2268.06 1017.5 2262.04 1016.82 2256.12 1015.44 2251.21 1014.3 2248.42 1010.29 2249.89 1006.49 2251.36 1002.69 2256.52 1000.53 2261.43 1001.66 2261.44 1001.66 2261.44 1001.66 2261.45 1001.67 2273.84 1004.54 2287.11 1003.06 2299.8 997.36 2320.96 987.864 2337.95 967.733 2345.25 943.51 2357.8 901.871 2321.76 862.158 2321.4 861.76 2318.5 858.481 2319.58 854.004 2323.81 851.759 2327.93 849.576 2333.53 850.3 2336.51 853.398 2338.2 855.232 2377.77 898.869 2363.34 946.775 2354.77 975.211 2335.01 998.182 2309.11 1009.8 2297.72 1014.92 2285.86 1017.5 2274.11 1017.5Z" stroke="#FFDB6E" stroke-width="0.610991" stroke-miterlimit="8" fill="#FFDB6E" fill-rule="evenodd"/><path d="M2186.55 1040.5C2185.97 1040.5 2185.39 1040.5 2184.8 1040.49 2166.3 1040.16 2150.03 1034.42 2141.29 1025.13 2138.26 1021.92 2139.17 1017.42 2143.33 1015.08 2143.34 1015.08 2143.34 1015.08 2143.34 1015.07 2147.49 1012.73 2153.32 1013.44 2156.35 1016.65 2156.35 1016.65 2156.36 1016.66 2156.36 1016.66 2161.62 1022.25 2172.69 1025.86 2185.23 1026.08 2204.67 1026.43 2223.74 1019.04 2237.43 1005.82 2264.6 979.581 2234.83 935.527 2234.52 935.083 2232.11 931.57 2233.83 927.209 2238.38 925.343 2242.93 923.477 2248.57 924.812 2250.99 928.325 2252.47 930.471 2286.73 981.269 2251.99 1014.81 2235.04 1031.19 2211.27 1040.5 2186.55 1040.5Z" stroke="#FFDB6E" stroke-width="0.610991" stroke-miterlimit="8" fill="#FFDB6E" fill-rule="evenodd"/><path d="M2206.46 939.7C2144.88 939.7 2091.09 886.045 2088.5 883.424 2085.41 880.236 2086.26 875.722 2090.4 873.342 2094.48 870.992 2100.25 871.595 2103.38 874.698 2104.02 875.349 2168.62 939.719 2228 922.233 2243.81 917.575 2253.97 910.408 2259.06 900.326 2270.56 877.546 2252.27 847.293 2248.48 841.459L2240.63 829.365C2238.32 825.807 2240.19 821.479 2244.81 819.7 2249.43 817.921 2255.04 819.362 2257.35 822.921L2265.21 835.017C2271.39 844.554 2290.48 877.817 2276.48 905.548 2269.47 919.438 2255.4 929.58 2234.67 935.686 2225.67 938.35 2216.1 939.711 2206.46 939.7ZM2052.77 978.5C2047.61 978.5 2043.42 975.275 2043.42 971.297 2043.42 967.319 2047.61 964.094 2052.77 964.094 2062.12 964.094 2073.96 960.875 2077.48 954.913 2080.54 949.739 2076.93 942.199 2067.31 933.69 2021.01 892.725 1979.67 915.582 1977.93 916.574 1973.8 918.938 1967.97 918.292 1964.87 915.126 1961.77 911.967 1962.58 907.475 1966.66 905.078 1967.22 904.749 2023.35 872.866 2081.4 924.226 2100.26 940.913 2098.93 953.369 2094.5 960.879 2087.31 973.05 2068.36 978.5 2052.77 978.5ZM1944.84 795.54C1939.68 795.54 1935.5 792.317 1935.5 788.341 1935.5 786.722 1936.21 785.149 1937.51 783.878 1938.79 782.632 1969.25 753.259 2010.84 743.643 2078.76 727.943 2100.91 753.098 2101.82 754.178 2104.64 757.514 2103.41 761.976 2099.08 764.143 2094.75 766.311 2088.96 765.363 2086.14 762.027 2085.6 761.451 2069.68 745.086 2016.21 757.441 1980.36 765.729 1952.46 792.541 1952.18 792.81 1950.4 794.537 1947.7 795.542 1944.84 795.54Z" stroke="#FFDB6E" stroke-width="0.610991" stroke-miterlimit="8" fill="#FFDB6E" fill-rule="evenodd"/><path d="M2199.74 893.5C2194.59 893.497 2190.42 890.274 2190.42 886.301 2190.42 885.122 2190.8 883.96 2191.52 882.919 2191.89 882.301 2202.44 864.03 2161.97 834.124 2118.79 802.206 2018.11 813.282 2017.1 813.399 2012.26 813.946 2008.01 812.421 2006.95 808.806 2005.81 807.487 1997.8 799.887 1964.83 799.887 1926.52 799.887 1897.4 808.499 1884.95 823.512 1878.82 830.894 1877.45 839.129 1881.29 845.543 1890.17 860.374 1928.81 859.501 1929.19 859.486 1934.34 859.315 1938.69 862.392 1938.91 866.36 1939.14 870.328 1935.14 873.685 1930 873.857 1927.89 873.927 1878.56 875.305 1864.35 851.57 1857.84 840.681 1859.66 827.293 1869.23 815.756 1878.61 804.457 1903.49 785.5 1964.83 785.5 1999.18 785.5 2014.03 792.997 2020.32 798.585 2044.09 796.519 2131.27 791.501 2174.88 823.735 2226.37 861.795 2208.75 888.564 2207.98 889.685 2206.36 892.034 2203.19 893.501 2199.74 893.5Z" stroke="#FFDB6E" stroke-width="0.610991" stroke-miterlimit="8" fill="#FFDB6E" fill-rule="evenodd"/><path d="M1906.69 1034.5C1899 1034.5 1890.79 1033.78 1882.06 1032.1 1821.75 1020.47 1788.43 969.413 1802.83 910.702 1817.4 851.324 1865.87 839.304 1867.92 838.821 1872.84 837.652 1878.05 839.778 1879.57 843.569 1881.08 847.361 1878.32 851.382 1873.41 852.55 1871.62 852.998 1833.46 863.15 1821.14 913.372 1808.63 964.366 1836.15 1008.43 1886.58 1018.16 1935 1027.5 1964.76 999.776 1965.06 999.496 1968.37 996.459 1974.24 996.069 1978.18 998.625 1982.01 1001.11 1982.61 1005.49 1979.53 1008.54 1978.25 1009.76 1951.68 1034.5 1906.69 1034.5Z" stroke="#FFDB6E" stroke-width="0.610991" stroke-miterlimit="8" fill="#FFDB6E" fill-rule="evenodd"/><path d="M1907.41 970.5C1906.7 970.501 1906 970.439 1905.31 970.315 1893.44 968.201 1872.58 957.704 1878.55 933.101 1881.71 920.113 1893.25 909.046 1910.21 902.728 1929.87 895.409 1953.24 895.795 1972.72 903.76 1977.23 905.717 1978.83 910.127 1976.3 913.609 1973.85 916.968 1968.43 918.257 1963.96 916.541 1949.72 910.718 1932.67 910.422 1918.34 915.755 1906.8 920.053 1899.01 927.349 1896.96 935.767 1893 952.067 1906.82 955.687 1909.63 956.246 1914.59 957.237 1917.66 961.132 1916.45 964.976 1915.44 968.206 1911.71 970.488 1907.41 970.5Z" stroke="#FFDB6E" stroke-width="0.610991" stroke-miterlimit="8" fill="#FFDB6E" fill-rule="evenodd"/><g clip-path="url(#clip1)"><g clip-path="url(#clip2)"><g clip-path="url(#clip3)"><path d="M336.919 297.5 191.516 44.625C185.938 34.5844 171.434 34.5844 165.856 44.625L20.0813 297.5C14.5031 307.541 21.5688 319.813 33.0969 319.813L178.5 319.813 323.903 319.813C335.431 319.813 342.497 307.541 336.919 297.5ZM167.344 104.125 189.656 104.125 189.656 234.281 167.344 234.281 167.344 104.125ZM178.5 286.344C168.088 286.344 159.906 278.163 159.906 267.75 159.906 257.338 168.088 249.156 178.5 249.156 188.913 249.156 197.094 257.338 197.094 267.75 197.094 278.163 188.913 286.344 178.5 286.344Z" fill="#FFDB6E" transform="matrix(1.29692 0 0 1 2205 834)"/></g></g></g><g clip-path="url(#clip4)"><g clip-path="url(#clip5)"><g clip-path="url(#clip6)"><path d="M420.604 63.6787C356.022 61.2206 293.292 85.5394 247.244 130.886 200.779 175.668 174.629 237.49 174.854 302.021L174.854 302.974 114.323 431.54C106.843 447.425 113.657 466.366 129.542 473.846 133.772 475.837 138.388 476.871 143.062 476.875L174.854 476.875 174.854 540.458C174.889 575.56 203.336 604.007 238.437 604.042L270.229 604.042 270.229 667.625C270.226 685.183 284.458 699.419 302.016 699.421 319.574 699.424 333.809 685.192 333.812 667.634 333.812 667.631 333.812 667.628 333.812 667.625L333.812 604.042C351.37 604.042 365.604 589.808 365.604 572.25 365.604 554.692 351.37 540.458 333.812 540.458L238.437 540.458 238.437 445.083C238.437 427.525 224.203 413.292 206.646 413.292L193.166 413.292 235.767 322.876C237.958 318.266 238.994 313.193 238.787 308.093L238.437 302.021C238.275 254.702 257.454 209.372 291.529 176.539 325.555 143.662 371.401 125.896 418.696 127.262 515.133 133.282 589.778 214.089 588.145 310.7L525.611 549.264C524.151 554.838 524.217 560.702 525.802 566.241L557.594 676.431C562.47 693.294 580.08 703.024 596.952 698.177 613.824 693.316 623.561 675.698 618.7 658.826 618.699 658.823 618.698 658.821 618.697 658.818L589.322 557.085 650.68 326.055C651.379 323.417 651.729 320.651 651.729 317.917L651.729 310.668C653.138 179.776 551.301 70.949 420.604 63.6787Z" fill="#FFDB6E" transform="matrix(-1.07733 0 0 1 2493 995)"/></g></g></g></g></svg>