<svg width="639" height="849" xmlns="http://www.w3.org/2000/svg" xmlns:xlink="http://www.w3.org/1999/xlink" xml:space="preserve" overflow="hidden"><defs><clipPath id="clip0"><rect x="1720" y="732" width="639" height="849"/></clipPath><clipPath id="clip1"><rect x="1720" y="1005" width="510" height="576"/></clipPath><clipPath id="clip2"><rect x="1720" y="1005" width="510" height="576"/></clipPath><clipPath id="clip3"><rect x="1720" y="1005" width="510" height="576"/></clipPath><clipPath id="clip4"><rect x="1876" y="1160" width="264" height="329"/></clipPath><clipPath id="clip5"><rect x="1876" y="1160" width="264" height="329"/></clipPath><clipPath id="clip6"><rect x="1876" y="1160" width="264" height="329"/></clipPath><clipPath id="clip7"><rect x="2040" y="841" width="320" height="320"/></clipPath><clipPath id="clip8"><rect x="2040" y="841" width="320" height="320"/></clipPath><clipPath id="clip9"><rect x="2040" y="841" width="320" height="320"/></clipPath></defs><g clip-path="url(#clip0)" transform="translate(-1720 -732)"><g clip-path="url(#clip1)"><g clip-path="url(#clip2)"><g clip-path="url(#clip3)"><path d="M-29162.8-22669.1C-29174.1-22717.8-29195.6-22766.3-29232.9-22799.8-29315.1-22881.1-29442.8-22865.7-29513.4-22794.4-29543.6-22763.8-29564.3-22724.1-29571.3-22686.7-29575-22666.9-29580.4-22640.4-29572.2-22611.8-29571.6-22602.9-29558.2-22583.6-29565.8-22582-29585.5-22575.8-29593.3-22557.1-29593.6-22534.3-29590.3-22516.9-29578.5-22496.4-29562.5-22489.8-29552.9-22487.1-29539.1-22491.3-29535.6-22482.2-29523-22459.1-29509.2-22442.1-29495.8-22423.2-29488.4-22412.6-29477.3-22399.2-29467.9-22389-29465.6-22386.7-29448.4-22367.6-29428.6-22354.4-29406.4-22342.9-29367.8-22335.1-29338.5-22335.1-29252.5-22335.1-29144.2-22366.2-29142.4-22462.2-29142.1-22483.3-29141.3-22504.5-29143.6-22525.5-29149.3-22573.2-29151.8-22622.8-29162.8-22669.1Z" fill="#FFFFFF" transform="matrix(1 0 0 1.00034 31341.1 23896.9)"/><path d="M-29308.3-22324.8C-29325-22324-29372.3-22333.7-29366.9-22356.2-29364.6-22363.2-29355.6-22368.2-29349.3-22363.1-29325.7-22343.7-29286.2-22349.2-29259.1-22357.2-29198.1-22373.4-29154-22404.9-29150.8-22468.9-29150.5-22525.8-29163.4-22590.3-29164-22645.8-29164.2-22661.2-29166.4-22678.3-29164.2-22693.1-29157.8-22672.5-29153.6-22644.6-29149.6-22625-29143-22569.3-29124.9-22500.6-29133.7-22442.4-29149.7-22365.4-29236.4-22327.9-29308.3-22324.8ZM-29467.8-22382C-29479-22384.4-29485.1-22396.1-29492.1-22404.1-29510.1-22427.6-29525-22453.1-29535.6-22481-29552.7-22469.5-29575.9-22485.9-29587.8-22498.6-29613.5-22526.3-29605.5-22573.9-29572.4-22591.9-29598.6-22635.6-29585.2-22693.3-29567.4-22737.9-29521.5-22850.2-29373.5-22899.6-29268.4-22840.5-29211.6-22809.1-29154.6-22739.6-29167.9-22675.9-29185.7-22718.8-29206.8-22761.9-29242.2-22792.9-29338.9-22883.2-29509.5-22839.9-29550.7-22714.7-29566-22676.8-29562-22636.2-29561.8-22596.4-29547.8-22601.4-29524.6-22598.7-29521.3-22582.8-29559.8-22594.1-29603-22543.4-29570.1-22511.5-29564.1-22505-29556.1-22500.3-29547.4-22498.4-29539.8-22497.2-29527.3-22491.1-29534.8-22481.9-29515.6-22459.4-29497.6-22437.8-29477.7-22415.4-29470.5-22407.2-29448.4-22388-29467.8-22382ZM-29522.5-22515.8C-29531.1-22516-29530.5-22527.4-29536.2-22532-29541.6-22524.1-29546.8-22531.6-29542.3-22537.8-29548.1-22543.3-29556.5-22545.4-29563.2-22548.2-29560.2-22550.5-29554.9-22549.7-29551.1-22550.2-29537.7-22553.5-29494.4-22521.9-29522.5-22515.8Z" fill="#FFDB6E" transform="matrix(1 0 0 1.00034 31341.1 23896.9)"/></g></g></g><g clip-path="url(#clip4)"><g clip-path="url(#clip5)"><g clip-path="url(#clip6)"><path d="M-16648.3-6464.09C-16660.8-6464.31-16674.2-6466.49-16684-6474.74-16684.7-6475.38-16684.9-6476.37-16684.7-6477.27-16684.5-6478.2-16683.7-6478.95-16682.8-6479.18-16677.7-6480.14-16672.6-6480.76-16667.3-6481.05-16663.9-6481.32-16660.2-6481.6-16656.7-6482.09-16653.9-6482.54-16651.2-6483.14-16648.5-6483.89-16644.4-6485.11-16640.3-6485.82-16636.2-6486.02-16633.5-6486.07-16630.9-6485.5-16628.5-6484.37-16626.3-6483.14-16624.7-6480.99-16624.2-6478.5-16622.5-6472.99-16627.4-6468.15-16632.1-6466.1-16634.8-6465.08-16637.9-6464.51-16640.9-6464.4-16643.5-6464.2-16645.9-6464.09-16648.3-6464.09Z" fill="#FFDB6E" transform="matrix(1.00229 0 0 1 18725.4 7933.2)"/><path d="M-16637.9-6561.67C-16648.1-6561.3-16685.3-6574-16670.3-6587.84-16669-6588.99-16667.3-6589.64-16665.6-6589.68-16664.3-6589.67-16663.1-6589.28-16661.9-6588.56-16652.8-6581.23-16635.8-6568.44-16624.9-6580.35-16614.2-6593.31-16630.9-6609.46-16638.4-6613.16-16639.4-6614.04-16639.7-6615.47-16639.2-6616.71-16638.5-6618.64-16636.7-6619.93-16634.7-6619.89-16619.3-6618.72-16607-6604.36-16608.9-6588.94-16609.8-6574.11-16622.7-6561.04-16637.9-6561.67L-16637.9-6561.67Z" fill="#FFDB6E" transform="matrix(1.00229 0 0 1 18725.4 7933.2)"/><path d="M-16590.8-6624.29C-16602.6-6625.35-16606.2-6640.36-16606.3-6650.31-16605.9-6684.7-16575.7-6684.63-16575.3-6650.31-16575.4-6640.37-16578.9-6625.34-16590.8-6624.29L-16590.8-6624.29Z" fill="#FFDB6E" transform="matrix(1.00229 0 0 1 18725.4 7933.2)"/><path d="M-16729.6-6624.46C-16734-6624.46-16738.1-6628.27-16739.5-6631.96-16741.5-6638.27-16741.9-6645.75-16738.7-6651.68L-16738.3-6652.12C-16738.4-6652.41-16738.4-6652.9-16738.4-6653.19-16746.4-6653.68-16755.7-6654.6-16764.7-6655.82-16771.9-6656.75-16781.3-6657-16786.9-6661.37-16787-6661.44-16787-6661.54-16787-6661.64-16787-6661.75-16786.9-6661.86-16786.8-6661.92-16780.3-6664.68-16772.8-6663.36-16766-6664.08-16753.3-6664.44-16741-6665-16729.5-6665.7-16726.5-6666.94-16723.1-6667.36-16720-6666.35-16714.3-6666.77-16708.2-6667.39-16702.5-6667.86-16697.3-6667.99-16692.3-6669.31-16687.2-6669.69-16680.7-6669.76-16674.1-6663.12-16679.6-6656.72-16683.5-6652.17-16687.7-6653.02-16692.7-6652.85-16698.5-6652.62-16704.2-6652.44-16710-6652.44-16709.7-6641.67-16716.6-6632.22-16725-6626.07-16726.3-6625.03-16727.9-6624.47-16729.6-6624.46L-16729.6-6624.46Z" fill="#FFDB6E" transform="matrix(1.00229 0 0 1 18725.4 7933.2)"/><path d="M-16644.1-6704.88C-16649.3-6705.95-16651.4-6711.03-16652.2-6715-16653.1-6719.58-16653-6724.28-16652.1-6728.84-16649.8-6739.36-16642.6-6748.73-16633-6753.56-16613.7-6764.02-16575.8-6752.43-16578.3-6726.89-16578.8-6724.47-16580.2-6722.34-16582.1-6720.93-16584.1-6719.64-16586.3-6718.98-16588.6-6719.02-16593.9-6718.91-16599.7-6722.59-16600-6728.23-16605.4-6736.03-16618.9-6738.39-16627.5-6733-16631.8-6730.27-16635.4-6725.62-16638.3-6719.19-16639-6717.4-16639.7-6715.57-16640.1-6713.69-16641-6710.64-16641.9-6707.48-16643.8-6705.02-16643.9-6704.93-16644-6704.88-16644.1-6704.88L-16644.1-6704.88Z" fill="#FFDB6E" transform="matrix(1.00229 0 0 1 18725.4 7933.2)"/></g></g></g><path d="M1964.09 1007.5C1943.69 1007.5 1924.01 1003.2 1914.14 994.935 1913.66 994.538 1913.17 994.137 1912.66 993.722 1903.81 986.492 1889 974.388 1887.64 930.804 1886.43 891.791 1891.52 796.685 1964.89 756.237 2025 723.094 2090.42 734.665 2127.68 785.035 2165.36 835.964 2131.63 873.837 2131.29 874.214 2128.83 876.767 2124.77 876.834 2122.23 874.363 2119.78 871.981 2119.62 868.087 2121.86 865.507 2122.95 864.299 2148.59 834.869 2117.4 792.706 2084.12 747.721 2025.31 737.597 1971.05 767.514 1903.9 804.536 1899.3 893.76 1900.44 930.405 1901.61 968.12 1913.12 977.523 1920.74 983.748 1921.29 984.198 1921.82 984.631 1922.33 985.058 1936.49 996.905 1982.37 997.91 2005.55 986.888 2025.21 977.538 2014.92 951.707 2014.47 950.612 2013.13 947.332 2014.68 943.58 2017.94 942.22 2021.2 940.864 2024.94 942.411 2026.3 945.68 2031.76 958.845 2035.6 986.824 2011.03 998.508 1998.3 1004.56 1980.95 1007.5 1964.09 1007.5Z" stroke="#FFDB6E" stroke-width="0.610991" stroke-miterlimit="8" fill="#FFDB6E" fill-rule="evenodd"/><path d="M2106.54 981.5C2102.35 981.5 2098.18 980.891 2094.08 979.663 2090.68 978.644 2088.75 975.068 2089.77 971.674 2090.79 968.284 2094.36 966.355 2097.76 967.367 2097.76 967.369 2097.77 967.37 2097.78 967.372 2106.35 969.939 2115.54 968.613 2124.32 963.531 2138.97 955.058 2150.74 937.097 2155.79 915.485 2164.48 878.334 2139.53 842.901 2139.27 842.547 2137.27 839.621 2138.02 835.627 2140.95 833.623 2143.8 831.676 2147.68 832.322 2149.74 835.086 2150.91 836.722 2178.3 875.655 2168.31 918.398 2162.38 943.769 2148.7 964.265 2130.77 974.632 2122.89 979.195 2114.68 981.5 2106.54 981.5Z" stroke="#FFDB6E" stroke-width="0.610991" stroke-miterlimit="8" fill="#FFDB6E" fill-rule="evenodd"/><path d="M2046.22 1001.5C2045.81 1001.5 2045.41 1001.5 2045 1001.49 2032.13 1001.2 2020.82 996.1 2014.74 987.856 2012.64 985.003 2013.27 981.005 2016.16 978.928 2016.17 978.926 2016.17 978.925 2016.17 978.924 2019.06 976.846 2023.11 977.471 2025.21 980.321 2025.22 980.325 2025.22 980.329 2025.22 980.333 2028.88 985.295 2036.58 988.501 2045.3 988.699 2058.81 989.007 2072.07 982.447 2081.59 970.704 2100.48 947.408 2079.78 908.291 2079.57 907.897 2077.89 904.778 2079.09 900.906 2082.25 899.249 2085.42 897.592 2089.34 898.777 2091.02 901.896 2092.05 903.802 2115.87 948.907 2091.72 978.692 2079.93 993.236 2063.4 1001.5 2046.22 1001.5Z" stroke="#FFDB6E" stroke-width="0.610991" stroke-miterlimit="8" fill="#FFDB6E" fill-rule="evenodd"/><path d="M2059.88 911.903C2017.52 911.903 1980.52 864.061 1978.74 861.723 1976.62 858.881 1977.2 854.857 1980.05 852.734 1982.86 850.638 1986.83 851.176 1988.98 853.943 1989.42 854.523 2033.85 911.92 2074.7 896.328 2085.57 892.175 2092.56 885.784 2096.07 876.795 2103.98 856.482 2091.39 829.507 2088.79 824.305L2083.39 813.521C2081.8 810.348 2083.09 806.49 2086.26 804.903 2089.44 803.317 2093.3 804.602 2094.89 807.775L2100.29 818.561C2104.54 827.064 2117.68 856.724 2108.05 881.451 2103.22 893.836 2093.55 902.88 2079.29 908.324 2073.09 910.7 2066.51 911.913 2059.88 911.903ZM1954.17 946.5C1950.61 946.5 1947.74 943.624 1947.74 940.077 1947.74 936.53 1950.61 933.655 1954.17 933.655 1960.6 933.655 1968.74 930.784 1971.17 925.468 1973.27 920.854 1970.78 914.132 1964.17 906.545 1932.32 870.017 1903.88 890.398 1902.69 891.282 1899.85 893.39 1895.83 892.814 1893.7 889.991 1891.57 887.175 1892.12 883.169 1894.94 881.032 1895.32 880.739 1933.93 852.31 1973.86 898.105 1986.83 912.984 1985.92 924.091 1982.87 930.788 1977.92 941.64 1964.89 946.5 1954.17 946.5ZM1879.93 783.36C1876.38 783.36 1873.5 780.487 1873.5 776.942 1873.5 775.498 1873.99 774.096 1874.88 772.962 1875.76 771.851 1896.72 745.66 1925.33 737.086 1972.05 723.086 1987.28 745.516 1987.91 746.48 1989.84 749.455 1989 753.433 1986.02 755.366 1983.04 757.298 1979.06 756.453 1977.12 753.478 1976.75 752.964 1965.79 738.372 1929.02 749.389 1904.36 756.779 1885.17 780.686 1884.97 780.926 1883.75 782.466 1881.89 783.363 1879.93 783.36Z" stroke="#FFDB6E" stroke-width="0.610991" stroke-miterlimit="8" fill="#FFDB6E" fill-rule="evenodd"/><path d="M2055.39 870.5C2051.84 870.497 2048.96 867.632 2048.97 864.101 2048.97 863.053 2049.23 862.02 2049.72 861.095 2049.98 860.545 2057.25 844.304 2029.35 817.721 1999.58 789.349 1930.16 799.195 1929.47 799.299 1926.13 799.786 1923.2 798.43 1922.47 795.217 1921.69 794.044 1916.17 787.289 1893.43 787.289 1867.02 787.289 1846.94 794.944 1838.35 808.289 1834.13 814.85 1833.19 822.171 1835.84 827.871 1841.95 841.055 1868.6 840.279 1868.86 840.266 1872.41 840.113 1875.41 842.849 1875.56 846.376 1875.72 849.903 1872.96 852.887 1869.42 853.039 1867.96 853.101 1833.95 854.327 1824.16 833.229 1819.66 823.549 1820.92 811.649 1827.52 801.394 1833.98 791.351 1851.14 774.5 1893.43 774.5 1917.12 774.5 1927.35 781.164 1931.69 786.131 1948.08 784.295 2008.18 779.834 2038.25 808.487 2073.75 842.318 2061.6 866.112 2061.07 867.109 2059.95 869.197 2057.77 870.501 2055.39 870.5Z" stroke="#FFDB6E" stroke-width="0.610991" stroke-miterlimit="8" fill="#FFDB6E" fill-rule="evenodd"/><path d="M1853.71 996.5C1848.39 996.5 1842.7 995.857 1836.66 994.354 1794.91 983.972 1771.84 938.387 1781.81 885.967 1791.89 832.95 1825.45 822.218 1826.87 821.786 1830.27 820.743 1833.88 822.641 1834.93 826.026 1835.98 829.412 1834.07 833.002 1830.67 834.045 1829.43 834.444 1803.01 843.509 1794.48 888.35 1785.82 933.88 1804.88 973.227 1839.78 981.911 1873.31 990.251 1893.91 965.497 1894.12 965.247 1896.41 962.535 1900.48 962.187 1903.2 964.469 1905.86 966.689 1906.27 970.598 1904.14 973.319 1903.25 974.414 1884.85 996.498 1853.71 996.5Z" stroke="#FFDB6E" stroke-width="0.610991" stroke-miterlimit="8" fill="#FFDB6E" fill-rule="evenodd"/><path d="M1854.14 939.5C1853.65 939.501 1853.16 939.446 1852.69 939.335 1844.5 937.453 1830.11 928.107 1834.23 906.2 1836.4 894.635 1844.36 884.78 1856.07 879.155 1869.64 872.638 1885.76 872.981 1899.2 880.074 1902.31 881.817 1903.42 885.743 1901.67 888.844 1899.98 891.834 1896.24 892.982 1893.16 891.454 1883.33 886.27 1871.57 886.006 1861.68 890.755 1853.72 894.581 1848.34 901.077 1846.93 908.573 1844.2 923.087 1853.73 926.311 1855.67 926.808 1859.09 927.691 1861.21 931.159 1860.37 934.581 1859.68 937.457 1857.1 939.489 1854.14 939.5Z" stroke="#FFDB6E" stroke-width="0.610991" stroke-miterlimit="8" fill="#FFDB6E" fill-rule="evenodd"/><g clip-path="url(#clip7)"><g clip-path="url(#clip8)"><g clip-path="url(#clip9)"><path d="M2341.06 1106.83 2211.13 880.875C2206.15 871.903 2193.19 871.903 2188.2 880.875L2057.94 1106.83C2052.96 1115.81 2059.27 1126.77 2069.57 1126.77L2199.5 1126.77 2329.43 1126.77C2339.73 1126.77 2346.04 1115.81 2341.06 1106.83ZM2189.53 934.042 2209.47 934.042 2209.47 1050.34 2189.53 1050.34 2189.53 934.042ZM2199.5 1096.86C2190.2 1096.86 2182.89 1089.55 2182.89 1080.25 2182.89 1070.95 2190.2 1063.64 2199.5 1063.64 2208.8 1063.64 2216.11 1070.95 2216.11 1080.25 2216.11 1089.55 2208.8 1096.86 2199.5 1096.86Z" fill="#FFDB6E"/></g></g></g></g></svg>