<?xml version="1.0" standalone="no"?><!DOCTYPE svg PUBLIC "-//W3C//DTD SVG 1.1//EN" "http://www.w3.org/Graphics/SVG/1.1/DTD/svg11.dtd"><svg t="1686558225467" class="icon" viewBox="0 0 1024 1024" version="1.1" xmlns="http://www.w3.org/2000/svg" p-id="4267" xmlns:xlink="http://www.w3.org/1999/xlink" width="128" height="128"><path d="M542.117647 842.330353a30.057412 30.057412 0 0 1-28.852706-21.564235L430.501647 541.153882H330.872471a30.117647 30.117647 0 0 1-29.274353-23.070117l-58.789647-244.073412-63.126589 244.555294a30.177882 30.177882 0 0 1-29.153882 22.588235H30.117647v-57.404235h96.978824l87.461647-338.823529a30.117647 30.117647 0 0 1 29.153882-22.588236h0.240941a30.117647 30.117647 0 0 1 29.033412 23.070118l81.438118 338.341647h98.484705c13.372235 0 25.118118 8.794353 28.852706 21.564235l60.536471 201.547294 61.44-201.667764a30.057412 30.057412 0 0 1 28.852706-21.443765h41.381647l81.136941-164.803765a30.177882 30.177882 0 0 1 26.804706-16.805647h0.240941c11.324235 0 21.624471 6.264471 26.744471 16.323765l84.931764 165.285647h98.18353v57.404235h-116.61553a29.876706 29.876706 0 0 1-26.74447-16.323764l-65.957647-128.361412-63.066353 127.879529a29.936941 29.936941 0 0 1-26.925177 16.805647h-37.707294l-84.08847 279.732706a29.936941 29.936941 0 0 1-28.792471 21.443765z" fill="#FFDB6E" p-id="4268"></path></svg>